<?xml version="1.0" standalone="no"?>
<!DOCTYPE svg PUBLIC "-//W3C//DTD SVG 20010904//EN"
 "http://www.w3.org/TR/2001/REC-SVG-20010904/DTD/svg10.dtd">
<svg version="1.0" xmlns="http://www.w3.org/2000/svg"
 width="260.000000pt" height="260.000000pt" viewBox="0 0 260.000000 260.000000"
 preserveAspectRatio="xMidYMid meet">
<metadata>
Created by potrace 1.11, written by Peter Selinger 2001-2013
</metadata>
<g transform="translate(0.000000,260.000000) scale(0.100000,-0.100000)"
fill="#000000" stroke="none">
<path d="M1208 2465 c-2 -1 -25 -6 -53 -9 -52 -6 -88 -13 -92 -16 -3 -3 -2 -2
-58 -15 -22 -4 -43 -8 -47 -7 -5 1 -8 -3 -8 -8 0 -6 -6 -10 -12 -8 -7 1 -35
-9 -63 -22 -27 -13 -56 -23 -62 -23 -7 0 -13 -4 -13 -9 0 -4 -4 -8 -10 -8 -5
0 -33 -14 -62 -32 -174 -105 -328 -261 -419 -423 -18 -33 -38 -63 -43 -67 -6
-4 -7 -8 -2 -8 5 0 4 -6 -1 -12 -19 -25 -76 -191 -87 -253 -3 -17 -9 -51 -14
-76 -10 -52 -8 -281 2 -349 4 -25 8 -55 9 -67 0 -13 4 -23 8 -23 3 0 10 -19
14 -43 5 -23 9 -44 10 -47 1 -3 7 -18 14 -35 6 -16 17 -43 23 -60 66 -169 236
-382 398 -497 128 -91 313 -172 445 -195 11 -2 43 -8 72 -13 144 -26 383 -2
550 56 83 29 223 99 235 118 4 6 8 8 8 3 0 -4 33 17 73 48 139 105 263 252
341 404 32 62 83 198 90 238 2 15 5 28 6 28 2 0 8 31 17 85 15 95 5 400 -14
433 -2 4 -6 20 -9 35 -3 15 -10 43 -16 62 -7 19 -13 37 -14 40 -13 46 -105
231 -124 250 -3 3 -19 25 -35 50 -58 86 -241 256 -330 306 -69 39 -155 82
-155 78 0 -2 -10 1 -22 8 -13 7 -26 13 -30 14 -5 1 -11 3 -15 4 -5 1 -11 2
-15 1 -5 0 -8 4 -8 9 0 6 -6 10 -12 9 -7 -1 -20 0 -28 4 -8 3 -26 8 -40 10
-14 3 -35 8 -46 10 -12 3 -38 8 -59 11 -20 4 -41 9 -45 11 -5 3 -12 1 -15 -5
-5 -7 -11 -8 -19 -1 -10 8 -209 14 -218 6z m247 -131 c22 -3 49 -7 60 -9 11
-1 27 -5 35 -8 8 -3 22 -5 30 -5 13 -1 41 -9 120 -40 14 -5 27 -9 30 -9 6 1
101 -52 118 -65 6 -6 12 -7 12 -4 0 4 10 -2 22 -14 12 -11 25 -20 30 -20 19 0
238 -210 238 -228 0 -6 8 -16 18 -21 9 -6 13 -11 9 -11 -4 0 0 -9 10 -19 34
-37 113 -204 138 -296 18 -65 21 -78 31 -170 12 -101 5 -289 -11 -316 -3 -3
-7 -24 -11 -45 -3 -21 -17 -68 -30 -104 -14 -36 -26 -69 -27 -75 -1 -5 -4 -12
-7 -15 -3 -3 -18 -30 -34 -60 -16 -30 -35 -62 -42 -71 -8 -8 -14 -20 -14 -26
0 -6 -7 -14 -16 -17 -9 -4 -14 -9 -11 -12 3 -3 -2 -14 -11 -23 -10 -10 -40
-42 -68 -72 -92 -96 -188 -167 -306 -222 -94 -44 -153 -63 -253 -82 -11 -2
-33 -7 -49 -10 -68 -14 -330 -6 -358 11 -5 3 -21 8 -36 11 -41 8 -45 9 -72 17
-88 29 -242 109 -312 163 -49 38 -177 170 -216 223 -22 30 -59 93 -82 140 -23
47 -46 93 -51 103 -5 10 -7 22 -4 27 4 6 1 10 -6 10 -7 0 -9 3 -6 6 3 4 2 14
-2 23 -5 9 -11 30 -14 46 -3 17 -8 41 -11 55 -24 104 -24 290 -1 398 11 48 13
59 26 102 7 25 13 48 15 53 1 4 3 10 4 15 1 4 2 10 1 15 0 4 4 7 9 7 6 0 10 5
10 11 0 18 57 126 102 192 56 82 149 179 232 241 38 28 71 49 74 48 3 -2 8 1
11 6 9 15 137 77 207 101 65 22 113 32 206 45 10 1 19 4 22 7 6 6 193 1 241
-7z"/>
<path d="M1264 2269 c-2 -5 -26 -8 -52 -7 -26 0 -69 -5 -97 -11 -27 -7 -57
-13 -65 -15 -17 -3 -42 -12 -80 -29 -14 -6 -29 -11 -34 -11 -15 -1 -19 -26 -4
-26 8 0 22 -6 32 -13 16 -12 16 -14 2 -14 -9 0 -16 5 -16 10 0 5 -7 7 -15 3
-8 -3 -15 -2 -15 2 0 4 -10 8 -22 9 -40 3 -198 -105 -273 -186 -22 -24 -49
-53 -60 -65 -26 -28 -95 -130 -95 -141 0 -5 -6 -16 -14 -24 -7 -9 -25 -45 -38
-81 -14 -36 -29 -74 -33 -85 -4 -11 -9 -27 -11 -35 -8 -41 -16 -85 -16 -87 1
-2 -3 -16 -8 -33 -8 -26 -7 -29 8 -21 9 6 30 21 46 35 16 14 37 28 47 31 11 4
19 11 19 16 0 5 7 9 15 9 8 0 15 4 15 9 0 5 12 14 28 20 15 6 46 21 68 35 36
21 67 35 189 81 11 5 25 9 30 11 6 1 46 11 90 23 88 22 111 27 200 37 33 3 63
8 68 11 4 2 7 -2 7 -9 0 -9 3 -9 8 -2 4 7 49 10 122 9 63 -1 115 -3 115 -4 0
-2 24 -4 53 -6 38 -3 50 0 45 8 -4 7 7 1 23 -13 17 -14 29 -30 27 -36 -2 -6 3
-14 11 -17 9 -4 16 -11 16 -17 0 -6 5 -16 10 -23 25 -28 78 -118 120 -202 24
-50 46 -92 47 -94 14 -20 51 88 86 254 18 83 21 130 20 270 -1 94 -3 188 -5
210 -3 42 -23 75 -45 75 -7 0 -13 4 -13 10 0 5 -7 7 -15 4 -8 -4 -15 -2 -15 3
0 14 -152 80 -172 75 -5 -1 -8 2 -8 7 0 5 -8 8 -17 7 -10 -2 -25 1 -33 5 -21
11 -88 22 -130 21 -19 0 -42 2 -50 5 -23 9 -110 10 -116 2z m-254 -127 c0 -5
18 -15 40 -22 22 -7 40 -17 40 -21 0 -4 9 -11 20 -14 11 -3 20 -11 20 -17 0
-6 -6 -6 -15 2 -8 7 -15 10 -15 6 0 -3 -8 1 -17 9 -10 8 -22 16 -28 16 -5 1
-19 6 -30 12 -11 6 -23 10 -27 9 -5 -1 -8 5 -8 13 0 8 5 15 10 15 6 0 10 -4
10 -8z m150 -82 c0 -5 -5 -10 -11 -10 -5 0 -7 5 -4 10 3 6 8 10 11 10 2 0 4
-4 4 -10z m30 -26 c0 -8 -4 -12 -10 -9 -5 3 -10 13 -10 21 0 8 5 12 10 9 6 -3
10 -13 10 -21z m60 -41 c0 -1 -11 2 -25 9 -13 6 -22 15 -19 19 4 7 44 -19 44
-28z m35 -23 c16 -17 16 -20 3 -15 -9 4 -19 13 -22 21 -7 19 -2 18 19 -6z
m136 -120 c60 -61 97 -106 92 -113 -5 -8 -8 -7 -11 3 -3 8 -47 57 -98 109 -52
51 -94 95 -94 97 0 13 22 -7 111 -96z"/>
<path d="M1895 2043 c13 -52 17 -314 6 -374 -7 -32 -14 -71 -16 -86 -8 -62
-61 -243 -75 -257 -5 -5 -10 -20 -10 -32 0 -13 -7 -30 -16 -38 -8 -9 -13 -16
-10 -16 15 0 -127 -251 -145 -258 -5 -2 -7 -8 -3 -13 3 -5 1 -9 -3 -9 -5 0
-17 -14 -27 -32 -17 -28 -17 -31 -3 -25 10 4 17 2 17 -3 0 -6 -11 -11 -25 -12
-14 -1 -37 -3 -52 -6 -44 -6 -313 -6 -365 0 -45 5 -47 5 -37 -14 17 -33 191
-201 244 -238 28 -18 52 -37 55 -40 20 -27 261 -146 314 -157 19 -3 146 65
146 79 0 4 6 8 13 8 7 0 23 10 34 23 11 12 36 36 54 52 39 35 97 101 119 134
8 13 22 33 31 45 38 50 112 216 125 281 2 11 6 31 10 45 3 14 7 34 8 45 1 11
5 26 9 33 14 22 -17 13 -45 -13 -15 -14 -32 -25 -38 -25 -5 0 -10 -4 -10 -10
0 -5 -7 -10 -15 -10 -8 0 -15 -3 -15 -8 0 -4 -17 -16 -37 -27 -21 -11 -40 -23
-43 -26 -3 -4 -30 -18 -60 -31 -30 -14 -75 -35 -100 -46 -95 -44 -310 -100
-310 -81 0 8 31 14 53 10 4 0 7 4 7 10 0 5 4 7 10 4 9 -6 130 25 175 45 79 34
191 86 195 90 3 3 28 19 55 35 50 28 107 70 154 112 20 18 26 33 27 70 0 27
-3 58 -7 70 -5 14 -4 23 4 27 9 3 8 5 -1 5 -7 1 -11 4 -8 9 4 6 1 27 -18 127
-15 75 -111 290 -146 325 -3 3 -18 22 -34 44 -16 21 -57 66 -92 100 -101 98
-111 104 -99 59z"/>
<path d="M995 1679 c-16 -4 -44 -11 -63 -14 -18 -3 -48 -12 -67 -19 -19 -8
-35 -13 -35 -11 0 4 -59 -18 -130 -48 -14 -5 -28 -10 -32 -9 -5 1 -8 -3 -8
-10 0 -6 -3 -9 -6 -6 -7 8 -142 -71 -214 -125 -96 -72 -92 -64 -89 -164 1 -48
6 -93 12 -100 5 -7 6 -16 3 -21 -5 -9 22 -121 47 -189 24 -66 80 -173 90 -173
4 0 5 -4 2 -10 -3 -6 -2 -10 2 -10 5 0 17 -15 28 -32 29 -50 158 -187 196
-208 14 -8 16 -4 10 33 -8 60 -7 312 2 377 12 82 12 84 20 98 5 6 6 12 3 12
-3 0 -1 11 4 26 6 14 12 39 15 56 3 17 9 36 12 42 4 6 8 17 9 26 2 18 27 83
34 90 3 3 6 12 8 19 5 24 76 166 84 169 5 2 6 7 3 12 -3 4 2 13 10 20 8 7 15
19 15 26 0 8 3 14 8 14 4 0 20 23 37 50 16 28 32 50 36 50 4 0 9 9 12 20 6 22
-7 24 -58 9z"/>
<path d="M1155 1540 c7 -11 -20 -20 -58 -20 -18 0 -36 -4 -42 -8 -15 -11 -14
-52 1 -52 18 0 16 13 18 -182 1 -158 -1 -172 -25 -170 -8 1 -6 -52 3 -58 5 -4
282 -5 309 -1 4 1 9 10 12 21 3 13 -1 24 -14 30 -24 13 -25 40 -1 41 9 1 44 1
77 1 75 -1 99 10 70 32 -20 15 -20 15 0 16 11 0 29 13 40 30 18 27 70 58 87
52 18 -5 30 92 19 148 -2 10 -81 7 -81 -2 0 -5 -6 -6 -12 -1 -18 10 -120 10
-135 0 -8 -6 -13 -5 -13 1 0 6 -13 9 -30 7 -35 -4 -50 13 -27 30 10 7 17 24
17 37 0 23 -4 26 -45 26 -49 1 -68 8 -60 22 3 4 -22 8 -55 8 -33 -1 -57 -4
-55 -8z m34 -98 c8 -14 6 -316 -2 -329 -8 -13 -58 -7 -67 7 -5 7 -5 281 -1
328 1 15 60 10 70 -6z m55 -51 c9 -17 15 -57 16 -102 0 -41 0 -98 0 -126 1
-47 -1 -53 -19 -53 -19 0 -20 6 -19 155 1 85 3 155 5 155 1 0 9 -13 17 -29z
m131 -11 c-8 -13 -35 0 -35 16 0 12 4 12 20 4 11 -6 18 -15 15 -20z m237 12
c4 -15 1 -18 -20 -14 -24 5 -24 6 -7 18 23 17 22 18 27 -4z m-159 -8 c-2 -5
-7 -9 -13 -8 -27 3 -31 5 -26 13 8 12 42 7 39 -5z m81 1 c-7 -18 -18 -19 -32
-2 -8 10 -5 13 13 15 18 1 23 -2 19 -13z m-154 -209 c0 -9 -7 -12 -20 -9 -11
3 -20 9 -20 14 0 5 9 9 20 9 11 0 20 -6 20 -14z m80 5 c0 -11 -26 -22 -34 -14
-12 12 -5 23 14 23 11 0 20 -4 20 -9z"/>
<path d="M853 1255 c-12 -23 -59 -185 -67 -230 -12 -69 -18 -112 -20 -141 -2
-16 -6 -36 -10 -42 -4 -7 -2 -12 4 -12 6 0 8 -5 5 -11 -8 -12 -8 -76 -1 -169
9 -112 16 -144 39 -164 27 -23 179 -96 201 -96 9 0 16 -4 16 -8 0 -5 6 -9 13
-10 31 -2 64 -9 72 -14 15 -9 112 -21 173 -22 28 -1 52 -5 52 -9 0 -5 5 -5 12
-1 7 4 31 8 54 9 95 5 295 52 308 73 4 6 -139 82 -164 87 -6 1 -63 38 -70 45
-3 3 -22 14 -42 25 -21 11 -38 23 -38 27 0 4 -14 14 -30 23 -34 17 -260 240
-260 256 0 5 -11 20 -25 33 -14 13 -25 26 -25 29 0 9 -64 101 -73 105 -4 2 -5
8 -1 13 3 5 0 9 -6 9 -6 0 -8 5 -5 10 3 6 1 10 -4 10 -6 0 -11 6 -11 14 0 8
-7 21 -15 30 -9 8 -16 18 -15 21 0 3 -13 33 -29 67 -25 55 -29 60 -38 43z"/>
</g>
</svg>
