<?xml version="1.0" standalone="no"?>
<!DOCTYPE svg PUBLIC "-//W3C//DTD SVG 1.1//EN" "http://www.w3.org/Graphics/SVG/1.1/DTD/svg11.dtd" >
<svg>
<metadata>
Created by FontForge 20090914 at Fri Feb 24 15:50:44 2012
 By root
Copyright (c) 2011, Thomas Junold &#60;hallo@buerofueraufmerksamkeit.de&#62;, with Reserved Font Name "Actor".
</metadata>
<defs>
<font id="Actor-Regular" horiz-adv-x="224" >
  <font-face 
    font-family="Actor"
    font-weight="400"
    font-stretch="normal"
    units-per-em="1000"
    panose-1="2 11 5 3 5 0 0 2 0 4"
    ascent="800"
    descent="-200"
    x-height="503"
    cap-height="682"
    bbox="-44 -262 1062 941"
    underline-thickness="50"
    underline-position="-250"
    stemh="64"
    stemv="85"
    unicode-range="U+0020-U+FB02"
  />
<missing-glyph horiz-adv-x="360" 
 />
    <glyph glyph-name="fi" unicode="fi" horiz-adv-x="600" 
d="M115 0v438h-93v65h92c0 186 115 255 225 255c81 0 154 -42 190 -65l-36 -60c-31 20 -87 55 -153 55c-109 0 -145 -82 -146 -185h141c103 0 193 10 193 10v-513h-80v438h-253v-438h-80z" />
    <glyph glyph-name="fl" unicode="fl" horiz-adv-x="600" 
d="M115 0v438h-93v65h92c0 186 90 265 235 265c92 0 179 -30 179 -30v-738h-80v683s-39 15 -98 15c-137 0 -155 -92 -156 -195h126v-65h-125v-438h-80z" />
    <glyph glyph-name=".notdef" horiz-adv-x="360" 
 />
    <glyph glyph-name=".null" horiz-adv-x="0" 
 />
    <glyph glyph-name="CR" horiz-adv-x="229" 
 />
    <glyph glyph-name="space" unicode=" " horiz-adv-x="229" 
 />
    <glyph glyph-name="Acircumflex" unicode="&#xc2;" horiz-adv-x="610" 
d="M19 0l234 682h104l234 -682h-87l-60 182h-277l-61 -182h-87zM193 262h224l-110 340h-3zM150 803l135 137h40l135 -137l-40 -33l-115 97l-115 -97z" />
    <glyph glyph-name="Adieresis" unicode="&#xc4;" horiz-adv-x="610" 
d="M19 0l234 682h104l234 -682h-87l-60 182h-277l-61 -182h-87zM193 262h224l-110 340h-3zM164 824c0 30 24 54 54 54c32 0 57 -24 57 -54c0 -31 -25 -54 -57 -54c-30 0 -54 23 -54 54zM335 824c0 30 24 54 54 54c32 0 57 -24 57 -54c0 -31 -25 -54 -57 -54
c-30 0 -54 23 -54 54z" />
    <glyph glyph-name="Agrave" unicode="&#xc0;" horiz-adv-x="610" 
d="M19 0l234 682h104l234 -682h-87l-60 182h-277l-61 -182h-87zM193 262h224l-110 340h-3zM338 769l-190 109l52 61l172 -125z" />
    <glyph glyph-name="Aring" unicode="&#xc5;" horiz-adv-x="610" 
d="M19 0l234 682h104l234 -682h-87l-60 182h-277l-61 -182h-87zM193 262h224l-110 340h-3zM198 827c0 62 46 109 106 109c62 0 111 -47 111 -109c0 -60 -49 -108 -111 -108c-60 0 -106 48 -106 108zM249 827c0 -32 25 -57 57 -57s58 25 58 57s-26 58 -58 58s-57 -26 -57 -58
z" />
    <glyph glyph-name="Atilde" unicode="&#xc3;" horiz-adv-x="610" 
d="M19 0l234 682h104l234 -682h-87l-60 182h-277l-61 -182h-87zM193 262h224l-110 340h-3zM423 869l54 -41c-36 -45 -70 -63 -103 -63c-66 0 -103 40 -136 40c-26 0 -46 -14 -63 -37l-52 44c34 47 75 58 111 58c57 0 95 -40 129 -40c31 0 47 20 60 39z" />
    <glyph glyph-name="B" unicode="B" horiz-adv-x="575" 
d="M88 0v682h182c144 0 205 -53 205 -162c0 -99 -67 -151 -67 -151c63 -25 117 -71 117 -169c0 -110 -54 -200 -224 -200h-213zM172 607v-221h167s51 37 51 121c0 79 -46 100 -111 100h-107zM172 316v-241h136c88 0 132 50 132 125c0 66 -32 116 -139 116h-129z" />
    <glyph glyph-name="C" unicode="C" horiz-adv-x="607" 
d="M570 660l-18 -74s-86 30 -185 30c-160 0 -221 -152 -221 -282c0 -166 101 -272 222 -272c113 0 189 28 189 28l17 -71s-90 -32 -206 -32c-210 0 -317 146 -317 348c0 233 134 356 317 356c111 0 202 -31 202 -31z" />
    <glyph glyph-name="Ccedilla" unicode="&#xc7;" horiz-adv-x="607" 
d="M570 660l-18 -74s-86 30 -185 30c-160 0 -221 -152 -221 -282c0 -166 101 -272 222 -272c113 0 189 28 189 28l17 -71s-90 -32 -206 -32c-210 0 -317 146 -317 348c0 233 134 356 317 356c111 0 202 -31 202 -31zM327 -83v24h79v-24c0 -47 -8 -89 -74 -161l-57 47
c52 56 52 89 52 114z" />
    <glyph glyph-name="D" unicode="D" horiz-adv-x="715" 
d="M172 605v-528h135c147 0 267 71 267 266c0 181 -104 262 -267 262h-135zM88 0v682h219c215 0 357 -106 357 -339c0 -234 -158 -343 -357 -343h-219z" />
    <glyph glyph-name="E" unicode="E" horiz-adv-x="564" 
d="M88 0v682h418v-77h-334v-218h310v-75h-310v-235h344v-77h-428z" />
    <glyph glyph-name="Eacute" unicode="&#xc9;" horiz-adv-x="564" 
d="M88 0v682h418v-77h-334v-218h310v-75h-310v-235h344v-77h-428zM225 814l172 125l52 -61l-190 -109z" />
    <glyph glyph-name="Ecircumflex" unicode="&#xca;" horiz-adv-x="564" 
d="M88 0v682h418v-77h-334v-218h310v-75h-310v-235h344v-77h-428zM151 802l135 137h40l135 -137l-40 -33l-115 97l-115 -97z" />
    <glyph glyph-name="Edieresis" unicode="&#xcb;" horiz-adv-x="564" 
d="M88 0v682h418v-77h-334v-218h310v-75h-310v-235h344v-77h-428zM167 812c0 30 24 54 54 54c32 0 57 -24 57 -54c0 -31 -25 -54 -57 -54c-30 0 -54 23 -54 54zM338 812c0 30 24 54 54 54c32 0 57 -24 57 -54c0 -31 -25 -54 -57 -54c-30 0 -54 23 -54 54z" />
    <glyph glyph-name="Egrave" unicode="&#xc8;" horiz-adv-x="564" 
d="M88 0v682h418v-77h-334v-218h310v-75h-310v-235h344v-77h-428zM362 768l-190 109l52 61l172 -125z" />
    <glyph glyph-name="Eth" unicode="&#xd0;" horiz-adv-x="753" 
d="M126 0v312h-123v80h123v290h219c215 0 357 -106 357 -339c0 -234 -158 -343 -357 -343h-219zM210 605v-213h158v-80h-158v-235h135c147 0 267 71 267 266c0 181 -104 262 -267 262h-135z" />
    <glyph glyph-name="Euro" unicode="&#x20ac;" horiz-adv-x="589" 
d="M46 250v65h88v74h-88v65h95c34 196 143 237 235 237c62 0 158 -15 158 -15l-13 -70s-99 15 -149 15c-94 0 -128 -72 -146 -167h218v-65h-221v-74h221v-65h-217c15 -123 26 -192 151 -192c51 0 153 20 153 20l12 -69s-105 -21 -183 -21c-129 0 -184 67 -219 262h-95z" />
    <glyph glyph-name="F" unicode="F" horiz-adv-x="541" 
d="M88 0v682h418v-77h-334v-218h310v-75h-310v-312h-84z" />
    <glyph glyph-name="G" unicode="G" horiz-adv-x="692" 
d="M621 663l-14 -77s-118 27 -208 27c-176 0 -253 -110 -253 -267c0 -202 112 -285 253 -285c91 0 147 26 147 26v183h-125v75h210v-299s-83 -59 -232 -59c-180 0 -348 74 -348 360c0 231 156 344 339 344c121 0 231 -28 231 -28z" />
    <glyph glyph-name="H" unicode="H" horiz-adv-x="689" 
d="M88 0v682h84v-295h345v295h84v-682h-84v312h-345v-312h-84z" />
    <glyph glyph-name="I" unicode="I" horiz-adv-x="260" 
d="M88 0v682h84v-682h-84z" />
    <glyph glyph-name="Iacute" unicode="&#xcd;" horiz-adv-x="260" 
d="M88 0v682h84v-682h-84zM52 813l172 125l52 -61l-190 -109z" />
    <glyph glyph-name="Icircumflex" unicode="&#xce;" horiz-adv-x="260" 
d="M88 0v682h84v-682h-84zM-26 802l135 137h40l135 -137l-40 -33l-115 97l-115 -97z" />
    <glyph glyph-name="Idieresis" unicode="&#xcf;" horiz-adv-x="260" 
d="M88 0v682h84v-682h-84zM-12 812c0 30 24 54 54 54c32 0 57 -24 57 -54c0 -31 -25 -54 -57 -54c-30 0 -54 23 -54 54zM159 812c0 30 24 54 54 54c32 0 57 -24 57 -54c0 -31 -25 -54 -57 -54c-30 0 -54 23 -54 54z" />
    <glyph glyph-name="Igrave" unicode="&#xcc;" horiz-adv-x="260" 
d="M88 0v682h84v-682h-84zM177 768l-190 109l52 61l172 -125zM88 0v682h84v-682h-84zM177 768l-190 109l52 61l172 -125z" />
    <glyph glyph-name="J" unicode="J" horiz-adv-x="325" 
d="M157 682h84v-469c0 -78 -10 -134 -53 -167c-31 -24 -77 -49 -156 -59l-11 71c126 22 136 62 136 156v468z" />
    <glyph glyph-name="K" unicode="K" horiz-adv-x="596" 
d="M88 0v682h84v-315l286 315h105l-262 -286l302 -396h-105l-255 334l-71 -78v-256h-84z" />
    <glyph glyph-name="L" unicode="L" horiz-adv-x="499" 
d="M88 0v682h84v-602h310v-80h-394z" />
    <glyph glyph-name="Lslash" unicode="&#x141;" horiz-adv-x="552" 
d="M141 682h83v-241l117 56l31 -69l-148 -70v-278h311v-80h-394v321l-115 -54l-31 69l146 68v278z" />
    <glyph glyph-name="M" unicode="M" horiz-adv-x="858" 
d="M71 0l36 682h107l154 -406l60 -165h2s22 73 57 165l157 406h107l35 -682h-85l-17 375c-6 130 -4 181 -4 181h-2l-66 -181l-141 -375h-85l-142 375c-49 129 -65 181 -65 181h-2s6 -51 -1 -181l-20 -375h-85z" />
    <glyph glyph-name="N" unicode="N" horiz-adv-x="690" 
d="M88 0v682h80l358 -541h2s-6 99 -6 201v340h80v-682h-80l-358 543h-2s6 -100 6 -202v-341h-80z" />
    <glyph glyph-name="Ntilde" unicode="&#xd1;" horiz-adv-x="690" 
d="M88 0v682h80l358 -541h2s-6 99 -6 201v340h80v-682h-80l-358 543h-2s6 -100 6 -202v-341h-80zM468 858l54 -41c-36 -45 -70 -63 -103 -63c-66 0 -103 40 -136 40c-26 0 -46 -14 -63 -37l-52 44c34 47 75 58 111 58c57 0 95 -40 129 -40c31 0 47 20 60 39z" />
    <glyph glyph-name="O" unicode="O" horiz-adv-x="760" 
d="M51 341c0 259 179 350 329 350s329 -71 329 -351c0 -260 -179 -353 -329 -353s-329 87 -329 354zM614 336c0 180 -90 275 -230 275s-238 -87 -238 -265c0 -180 90 -279 230 -279s238 89 238 269z" />
    <glyph glyph-name="OE" unicode="&#x152;" horiz-adv-x="910" 
d="M434 77v528h-26c-163 0 -267 -81 -267 -262c0 -195 120 -266 267 -266h26zM862 0h-454c-199 0 -357 109 -357 343c0 233 142 339 357 339h444v-77h-334v-218h310v-75h-310v-235h344v-77z" />
    <glyph glyph-name="Oacute" unicode="&#xd3;" horiz-adv-x="760" 
d="M51 341c0 259 179 350 329 350s329 -71 329 -351c0 -260 -179 -353 -329 -353s-329 87 -329 354zM614 336c0 180 -90 275 -230 275s-238 -87 -238 -265c0 -180 90 -279 230 -279s238 89 238 269zM271 813l172 125l52 -61l-190 -109z" />
    <glyph glyph-name="Ocircumflex" unicode="&#xd4;" horiz-adv-x="760" 
d="M51 341c0 259 179 350 329 350s329 -71 329 -351c0 -260 -179 -353 -329 -353s-329 87 -329 354zM614 336c0 180 -90 275 -230 275s-238 -87 -238 -265c0 -180 90 -279 230 -279s238 89 238 269zM239 803l135 137h40l135 -137l-40 -33l-115 97l-115 -97z" />
    <glyph glyph-name="Odieresis" unicode="&#xd6;" horiz-adv-x="760" 
d="M51 341c0 259 179 350 329 350s329 -71 329 -351c0 -260 -179 -353 -329 -353s-329 87 -329 354zM614 336c0 180 -90 275 -230 275s-238 -87 -238 -265c0 -180 90 -279 230 -279s238 89 238 269zM247 824c0 30 24 54 54 54c32 0 57 -24 57 -54c0 -31 -25 -54 -57 -54
c-30 0 -54 23 -54 54zM418 824c0 30 24 54 54 54c32 0 57 -24 57 -54c0 -31 -25 -54 -57 -54c-30 0 -54 23 -54 54z" />
    <glyph glyph-name="Ograve" unicode="&#xd2;" horiz-adv-x="760" 
d="M51 341c0 259 179 350 329 350s329 -71 329 -351c0 -260 -179 -353 -329 -353s-329 87 -329 354zM614 336c0 180 -90 275 -230 275s-238 -87 -238 -265c0 -180 90 -279 230 -279s238 89 238 269zM456 768l-190 109l52 61l172 -125z" />
    <glyph glyph-name="Oslash" unicode="&#xd8;" horiz-adv-x="760" 
d="M52 -6l80 96c-49 56 -81 137 -81 251c0 259 179 350 329 350c69 0 145 -15 206 -60l68 81l54 -45l-71 -84c44 -54 72 -132 72 -243c0 -260 -179 -353 -329 -353c-65 0 -136 16 -195 57l-79 -95zM146 346c0 -77 16 -139 46 -185l337 402c-38 31 -87 48 -145 48
c-140 0 -238 -87 -238 -265zM614 336c0 70 -14 128 -39 172l-335 -399c36 -28 83 -42 136 -42c140 0 238 89 238 269z" />
    <glyph glyph-name="Otilde" unicode="&#xd5;" horiz-adv-x="760" 
d="M51 341c0 259 179 350 329 350s329 -71 329 -351c0 -260 -179 -353 -329 -353s-329 87 -329 354zM614 336c0 180 -90 275 -230 275s-238 -87 -238 -265c0 -180 90 -279 230 -279s238 89 238 269zM503 869l54 -41c-36 -45 -70 -63 -103 -63c-66 0 -103 40 -136 40
c-26 0 -46 -14 -63 -37l-52 44c34 47 75 58 111 58c57 0 95 -40 129 -40c31 0 47 20 60 39z" />
    <glyph glyph-name="P" unicode="P" horiz-adv-x="540" 
d="M88 0v682h157c173 0 255 -55 255 -201c0 -159 -139 -210 -229 -210h-99v-271h-84zM172 607v-261h92c90 0 151 30 151 137s-61 124 -181 124h-62z" />
    <glyph glyph-name="Q" unicode="Q" horiz-adv-x="759" 
d="M614 336c0 180 -90 275 -230 275s-238 -87 -238 -265c0 -180 90 -279 230 -279s238 89 238 269zM424 -11c-17 -2 -25 -2 -41 -2c-141 0 -332 74 -332 354c0 259 177 350 332 350c151 0 326 -72 326 -351c0 -181 -92 -279 -188 -321c44 -25 128 -88 179 -88
c24 0 51 8 74 23l37 -65c-31 -18 -71 -38 -115 -38c-62 0 -163 66 -272 138z" />
    <glyph glyph-name="R" unicode="R" horiz-adv-x="579" 
d="M88 0v682h168c148 0 244 -45 244 -194c0 -167 -137 -197 -137 -197v-2s12 -13 27 -33l193 -256h-99l-198 271h-114v-271h-84zM415 474c0 113 -58 133 -160 133h-83v-261h99c103 0 142 57 144 128z" />
    <glyph glyph-name="S" unicode="S" horiz-adv-x="526" 
d="M451 669l-14 -81s-79 23 -164 23c-98 0 -138 -30 -138 -92c0 -146 355 -143 355 -347c0 -156 -151 -185 -264 -185c-105 0 -181 32 -181 32l20 81s77 -33 161 -33c103 0 179 24 179 94c0 152 -355 139 -355 358c0 86 55 172 223 172c97 0 178 -22 178 -22z" />
    <glyph glyph-name="Scaron" unicode="&#x160;" horiz-adv-x="526" 
d="M451 669l-14 -81s-79 23 -164 23c-98 0 -138 -30 -138 -92c0 -146 355 -143 355 -347c0 -156 -151 -185 -264 -185c-105 0 -181 32 -181 32l20 81s77 -33 161 -33c103 0 179 24 179 94c0 152 -355 139 -355 358c0 86 55 172 223 172c97 0 178 -22 178 -22zM231 770
l-135 137l40 33l115 -97l115 97l40 -33l-135 -137h-40z" />
    <glyph glyph-name="T" unicode="T" horiz-adv-x="546" 
d="M231 0v604h-214v78h512v-78h-214v-604h-84z" />
    <glyph glyph-name="U" unicode="U" horiz-adv-x="716" 
d="M83 682h84v-426c0 -153 96 -188 192 -188s190 35 190 188v426h84v-447c0 -138 -109 -247 -275 -247c-176 0 -275 91 -275 247v447z" />
    <glyph glyph-name="Uacute" unicode="&#xda;" horiz-adv-x="716" 
d="M83 682h84v-426c0 -153 96 -188 192 -188s190 35 190 188v426h84v-447c0 -138 -109 -247 -275 -247c-176 0 -275 91 -275 247v447zM308 813l172 125l52 -61l-190 -109z" />
    <glyph glyph-name="Ucircumflex" unicode="&#xdb;" horiz-adv-x="716" 
d="M83 682h84v-426c0 -153 96 -188 192 -188s190 35 190 188v426h84v-447c0 -138 -109 -247 -275 -247c-176 0 -275 91 -275 247v447zM213 804l135 137h40l135 -137l-40 -33l-115 97l-115 -97z" />
    <glyph glyph-name="Udieresis" unicode="&#xdc;" horiz-adv-x="716" 
d="M83 682h84v-426c0 -153 96 -188 192 -188s190 35 190 188v426h84v-447c0 -138 -109 -247 -275 -247c-176 0 -275 91 -275 247v447zM212 824c0 30 24 54 54 54c32 0 57 -24 57 -54c0 -31 -25 -54 -57 -54c-30 0 -54 23 -54 54zM383 824c0 30 24 54 54 54
c32 0 57 -24 57 -54c0 -31 -25 -54 -57 -54c-30 0 -54 23 -54 54z" />
    <glyph glyph-name="Ugrave" unicode="&#xd9;" horiz-adv-x="716" 
d="M83 682h84v-426c0 -153 96 -188 192 -188s190 35 190 188v426h84v-447c0 -138 -109 -247 -275 -247c-176 0 -275 91 -275 247v447zM425 768l-190 109l52 61l172 -125z" />
    <glyph glyph-name="V" unicode="V" horiz-adv-x="596" 
d="M245 0l-227 682h85l196 -602h1l193 602h85l-227 -682h-106z" />
    <glyph glyph-name="W" unicode="W" horiz-adv-x="946" 
d="M186 0l-158 682h85l132 -602h1l175 602h106l173 -602h1l131 602h85l-157 -682h-106l-180 601h-1l-181 -601h-106z" />
    <glyph glyph-name="X" unicode="X" horiz-adv-x="551" 
d="M20 0l197 347l-197 335h95l161 -277l160 277h95l-202 -343l203 -339h-97l-164 285l-156 -285h-95z" />
    <glyph glyph-name="Y" unicode="Y" horiz-adv-x="545" 
d="M230 0v248l-218 434h93l167 -331l168 331h93l-218 -434v-248h-85z" />
    <glyph glyph-name="Yacute" unicode="&#xdd;" horiz-adv-x="545" 
d="M230 0v248l-218 434h93l167 -331l168 331h93l-218 -434v-248h-85zM175 813l172 125l52 -61l-190 -109z" />
    <glyph glyph-name="Ydieresis" unicode="&#x178;" horiz-adv-x="545" 
d="M230 0v248l-218 434h93l167 -331l168 331h93l-218 -434v-248h-85zM132 813c0 30 24 54 54 54c32 0 57 -24 57 -54c0 -31 -25 -54 -57 -54c-30 0 -54 23 -54 54zM303 813c0 30 24 54 54 54c32 0 57 -24 57 -54c0 -31 -25 -54 -57 -54c-30 0 -54 23 -54 54z" />
    <glyph glyph-name="Z" unicode="Z" horiz-adv-x="588" 
d="M36 0v36l386 566h-386v80h520v-34l-389 -568h380v-80h-511z" />
    <glyph glyph-name="Zcaron" unicode="&#x17d;" horiz-adv-x="588" 
d="M36 0v36l386 566h-386v80h520v-34l-389 -568h380v-80h-511zM256 770l-135 137l40 33l115 -97l115 97l40 -33l-135 -137h-40z" />
    <glyph glyph-name="a" unicode="a" horiz-adv-x="501" 
d="M352 117v114s-69 -3 -105 -8c-96 -12 -132 -41 -132 -96c0 -46 31 -70 78 -70c64 0 111 24 159 60zM361 -8l-10 55c-62 -36 -113 -60 -175 -60c-89 0 -146 41 -146 140c0 104 116 152 230 161c48 4 92 6 92 6c0 93 -4 149 -99 149c-76 0 -150 -22 -150 -22l-16 69
s84 23 183 23c135 0 162 -87 162 -182v-240c0 -36 6 -91 6 -91z" />
    <glyph glyph-name="aacute" unicode="&#xe1;" horiz-adv-x="501" 
d="M352 117v114s-69 -3 -105 -8c-96 -12 -132 -41 -132 -96c0 -46 31 -70 78 -70c64 0 111 24 159 60zM361 -8l-10 55c-62 -36 -113 -60 -175 -60c-89 0 -146 41 -146 140c0 104 116 152 230 161c48 4 92 6 92 6c0 93 -4 149 -99 149c-76 0 -150 -22 -150 -22l-16 69
s84 23 183 23c135 0 162 -87 162 -182v-240c0 -36 6 -91 6 -91zM147 645l172 125l52 -61l-190 -109z" />
    <glyph glyph-name="acircumflex" unicode="&#xe2;" horiz-adv-x="501" 
d="M352 117v114s-69 -3 -105 -8c-96 -12 -132 -41 -132 -96c0 -46 31 -70 78 -70c64 0 111 24 159 60zM361 -8l-10 55c-62 -36 -113 -60 -175 -60c-89 0 -146 41 -146 140c0 104 116 152 230 161c48 4 92 6 92 6c0 93 -4 149 -99 149c-76 0 -150 -22 -150 -22l-16 69
s84 23 183 23c135 0 162 -87 162 -182v-240c0 -36 6 -91 6 -91zM100 633l135 137h40l135 -137l-40 -33l-115 97l-115 -97z" />
    <glyph glyph-name="acute" unicode="&#xb4;" horiz-adv-x="424" 
d="M100 646l172 125l52 -61l-190 -109z" />
    <glyph glyph-name="adieresis" unicode="&#xe4;" horiz-adv-x="501" 
d="M352 117v114s-69 -3 -105 -8c-96 -12 -132 -41 -132 -96c0 -46 31 -70 78 -70c64 0 111 24 159 60zM361 -8l-10 55c-62 -36 -113 -60 -175 -60c-89 0 -146 41 -146 140c0 104 116 152 230 161c48 4 92 6 92 6c0 93 -4 149 -99 149c-76 0 -150 -22 -150 -22l-16 69
s84 23 183 23c135 0 162 -87 162 -182v-240c0 -36 6 -91 6 -91zM115 647c0 30 24 54 54 54c32 0 57 -24 57 -54c0 -31 -25 -54 -57 -54c-30 0 -54 23 -54 54zM286 647c0 30 24 54 54 54c32 0 57 -24 57 -54c0 -31 -25 -54 -57 -54c-30 0 -54 23 -54 54z" />
    <glyph glyph-name="ae" unicode="&#xe6;" horiz-adv-x="806" 
d="M176 -13c-100 0 -146 48 -146 140c0 107 105 152 219 161c40 3 98 8 98 8l4 27c11 77 -13 120 -98 120c-76 0 -149 -19 -149 -19l-17 71s84 18 183 18c75 0 117 -28 139 -68c41 44 99 68 174 68c130 0 186 -109 186 -238l-15 -44h-324c0 -89 48 -174 166 -174
c81 0 133 22 133 22l15 -65s-76 -27 -163 -27c-72 0 -133 19 -184 82c0 0 -89 -82 -221 -82zM364 122c-16 44 -20 109 -20 109c-17 -1 -67 -4 -97 -8c-96 -12 -133 -41 -133 -96c0 -46 32 -70 79 -70c64 0 123 29 171 65zM434 295h252c0 19 -8 148 -112 148
c-112 0 -140 -108 -140 -148z" />
    <glyph glyph-name="agrave" unicode="&#xe0;" horiz-adv-x="501" 
d="M352 117v114s-69 -3 -105 -8c-96 -12 -132 -41 -132 -96c0 -46 31 -70 78 -70c64 0 111 24 159 60zM361 -8l-10 55c-62 -36 -113 -60 -175 -60c-89 0 -146 41 -146 140c0 104 116 152 230 161c48 4 92 6 92 6c0 93 -4 149 -99 149c-76 0 -150 -22 -150 -22l-16 69
s84 23 183 23c135 0 162 -87 162 -182v-240c0 -36 6 -91 6 -91zM319 601l-190 109l52 61l172 -125z" />
    <glyph glyph-name="ampersand" unicode="&#x26;" horiz-adv-x="699" 
d="M652 -21c-46 36 -94 76 -142 119c-62 -65 -145 -111 -253 -111c-117 0 -203 58 -203 175c0 118 106 182 169 223c-49 59 -112 120 -112 211c0 75 52 156 192 156c145 0 184 -71 184 -156c0 -95 -90 -175 -159 -220c63 -68 120 -124 173 -173c36 53 63 114 81 170l66 -22
c-18 -62 -48 -134 -93 -197l141 -126zM257 57c80 0 146 36 198 90c-66 60 -131 124 -187 187c-66 -46 -134 -94 -134 -175c0 -49 40 -102 123 -102zM191 596c0 -64 31 -101 95 -175c63 43 121 105 121 173c0 56 -22 88 -104 88c-74 0 -112 -33 -112 -86z" />
    <glyph glyph-name="approxequal" unicode="&#x2248;" horiz-adv-x="594" 
d="M483 405l34 -60c-31 -25 -65 -47 -117 -47c-82 0 -129 47 -209 47c-35 0 -57 -16 -100 -39l-31 60c31 21 80 49 131 49c80 0 127 -47 209 -47c30 0 63 23 83 37zM502 257l31 -59c-31 -25 -62 -48 -114 -48c-82 0 -129 47 -209 47c-35 0 -56 -15 -100 -39l-31 60
c31 21 80 49 131 49c80 0 127 -47 209 -47c30 0 63 23 83 37z" />
    <glyph glyph-name="aring" unicode="&#xe5;" horiz-adv-x="501" 
d="M352 117v114s-69 -3 -105 -8c-96 -12 -132 -41 -132 -96c0 -46 31 -70 78 -70c64 0 111 24 159 60zM361 -8l-10 55c-62 -36 -113 -60 -175 -60c-89 0 -146 41 -146 140c0 104 116 152 230 161c48 4 92 6 92 6c0 93 -4 149 -99 149c-76 0 -150 -22 -150 -22l-16 69
s84 23 183 23c135 0 162 -87 162 -182v-240c0 -36 6 -91 6 -91zM153 690c0 62 46 109 106 109c62 0 111 -47 111 -109c0 -60 -49 -108 -111 -108c-60 0 -106 48 -106 108zM204 690c0 -32 25 -57 57 -57s58 25 58 57s-26 58 -58 58s-57 -26 -57 -58z" />
    <glyph glyph-name="asciicircum" unicode="^" horiz-adv-x="666" 
d="M100 432l235 313l231 -313h-85l-146 205l-146 -205h-89z" />
    <glyph glyph-name="asciitilde" unicode="~" horiz-adv-x="557" 
d="M473 338l36 -56c-31 -25 -66 -54 -118 -54c-82 0 -129 57 -209 57c-30 0 -53 -15 -98 -43l-34 57c34 24 81 56 132 56c80 0 127 -57 209 -57c30 0 63 25 82 40z" />
    <glyph glyph-name="asterisk" unicode="*" horiz-adv-x="447" 
d="M400 446l-115 -36l74 -95l-64 -48l-72 104l-70 -106l-66 46l76 100l-115 40l26 75l114 -47l-3 121h80l-4 -121l112 42z" />
    <glyph glyph-name="at" unicode="@" horiz-adv-x="853" 
d="M515 438c0 0 -30 7 -63 7c-66 0 -136 -58 -136 -184c0 -29 8 -69 26 -69c21 0 151 124 163 192zM597 497l-30 -200c-7 -46 7 -102 15 -102c77 0 157 55 157 178c0 178 -105 248 -283 248c-169 0 -331 -121 -331 -340c0 -199 96 -281 291 -281c94 0 150 28 150 28l20 -66
s-82 -30 -194 -30c-210 0 -337 109 -337 349c0 260 192 410 401 410s353 -85 353 -318c0 -128 -75 -253 -266 -253c-11 0 -40 46 -38 146h-2c-70 -89 -127 -141 -179 -141c-59 0 -87 49 -87 120c0 158 99 268 237 268c37 0 123 -16 123 -16z" />
    <glyph glyph-name="atilde" unicode="&#xe3;" horiz-adv-x="501" 
d="M352 117v114s-69 -3 -105 -8c-96 -12 -132 -41 -132 -96c0 -46 31 -70 78 -70c64 0 111 24 159 60zM361 -8l-10 55c-62 -36 -113 -60 -175 -60c-89 0 -146 41 -146 140c0 104 116 152 230 161c48 4 92 6 92 6c0 93 -4 149 -99 149c-76 0 -150 -22 -150 -22l-16 69
s84 23 183 23c135 0 162 -87 162 -182v-240c0 -36 6 -91 6 -91zM377 704l54 -41c-36 -45 -70 -63 -103 -63c-66 0 -103 40 -136 40c-26 0 -46 -14 -63 -37l-52 44c34 47 75 58 111 58c57 0 95 -40 129 -40c31 0 47 20 60 39z" />
    <glyph glyph-name="b" unicode="b" horiz-adv-x="538" 
d="M71 30v719l80 9v-298s76 53 141 53c110 0 201 -83 201 -261c0 -196 -120 -265 -244 -265c-122 0 -178 43 -178 43zM151 388v-314s46 -17 98 -17c124 0 159 73 159 191c0 94 -41 195 -125 195c-55 0 -132 -55 -132 -55z" />
    <glyph glyph-name="backslash" unicode="\" horiz-adv-x="508" 
d="M404 -208l-375 1031l75 26l375 -1031z" />
    <glyph glyph-name="bar" unicode="|" horiz-adv-x="230" 
d="M75 -228v986h80v-986h-80z" />
    <glyph glyph-name="braceleft" unicode="{" horiz-adv-x="325" 
d="M119 130c0 83 -53 103 -93 120v75c52 21 93 35 93 130c0 75 -7 113 -7 202c0 91 109 130 175 145l14 -70s-110 -21 -110 -92c0 -55 7 -107 7 -191c0 -80 -19 -144 -83 -162c64 -18 83 -71 83 -151c0 -84 -7 -136 -7 -191c0 -71 110 -92 110 -92l-14 -70
c-66 15 -175 54 -175 145c0 89 7 127 7 202z" />
    <glyph glyph-name="braceright" unicode="}" horiz-adv-x="325" 
d="M206 130c0 -75 7 -113 7 -202c0 -91 -109 -130 -175 -145l-14 70s110 21 110 92c0 55 -7 107 -7 191c0 80 19 133 83 151c-64 18 -83 82 -83 162c0 84 7 136 7 191c0 71 -110 92 -110 92l14 70c66 -15 175 -54 175 -145c0 -89 -7 -127 -7 -202c0 -95 41 -109 93 -130v-75
c-40 -17 -93 -37 -93 -120z" />
    <glyph glyph-name="bracketleft" unicode="[" horiz-adv-x="311" 
d="M74 -252v1042h208v-80h-123v-882h123v-80h-208z" />
    <glyph glyph-name="bracketright" unicode="]" horiz-adv-x="311" 
d="M237 790v-1042h-208v80h123v882h-123v80h208z" />
    <glyph glyph-name="breve" unicode="&#x2d8;" horiz-adv-x="464" 
d="M100 701h57c11 -31 40 -53 74 -53c33 0 63 22 75 53h58c-14 -61 -71 -108 -133 -108c-64 0 -118 47 -131 108z" />
    <glyph glyph-name="brokenbar" unicode="&#xa6;" horiz-adv-x="234" 
d="M82 0v306h70v-306h-70zM82 376v306h70v-306h-70z" />
    <glyph glyph-name="bullet" unicode="&#x2022;" horiz-adv-x="341" 
d="M46 267c0 65 56 119 124 119c67 0 126 -54 126 -119c0 -70 -59 -128 -126 -128c-68 0 -124 58 -124 128z" />
    <glyph glyph-name="c" unicode="c" horiz-adv-x="437" 
d="M400 497l-16 -67s-56 13 -108 13c-120 0 -146 -107 -146 -195c0 -137 74 -191 156 -191c57 0 108 17 108 17l16 -67s-60 -20 -134 -20c-146 0 -231 70 -231 262c0 188 112 264 231 264c65 0 124 -16 124 -16z" />
    <glyph glyph-name="caron" unicode="&#x2c7;" horiz-adv-x="510" 
d="M235 593l-135 137l40 33l115 -97l115 97l40 -33l-135 -137h-40z" />
    <glyph glyph-name="ccedilla" unicode="&#xe7;" horiz-adv-x="437" 
d="M400 497l-16 -67s-56 13 -108 13c-120 0 -146 -107 -146 -195c0 -137 74 -191 156 -191c57 0 108 17 108 17l16 -67s-60 -20 -134 -20c-146 0 -231 70 -231 262c0 188 112 264 231 264c65 0 124 -16 124 -16zM218 -83v24h79v-24c0 -47 -8 -89 -74 -161l-57 47
c52 56 52 89 52 114z" />
    <glyph glyph-name="cedilla" unicode="&#xb8;" horiz-adv-x="331" 
d="M152 -83v24h79v-24c0 -47 -8 -89 -74 -161l-57 47c52 56 52 89 52 114z" />
    <glyph glyph-name="cent" unicode="&#xa2;" horiz-adv-x="461" 
d="M225 -20v122c-116 7 -175 64 -175 231c0 140 83 219 175 232v117h80v-118c56 -7 101 -20 101 -20l-16 -67s-67 21 -139 21c-110 0 -116 -98 -116 -166c0 -117 31 -161 133 -161c67 0 129 24 129 24l16 -67c-29 -12 -70 -20 -108 -24v-124h-80z" />
    <glyph glyph-name="circumflex" unicode="&#x2c6;" horiz-adv-x="510" 
d="M100 633l135 137h40l135 -137l-40 -33l-115 97l-115 -97z" />
    <glyph glyph-name="colon" unicode=":" horiz-adv-x="245" 
d="M62 59c0 32 26 59 59 59c34 0 62 -27 62 -59c0 -33 -28 -59 -62 -59c-33 0 -59 26 -59 59zM62 394c0 32 26 59 59 59c34 0 62 -27 62 -59c0 -33 -28 -59 -62 -59c-33 0 -59 26 -59 59z" />
    <glyph glyph-name="comma" unicode="," horiz-adv-x="211" 
d="M37 -116l34 246h85l-56 -258z" />
    <glyph glyph-name="copyright" unicode="&#xa9;" horiz-adv-x="781" 
d="M50 341c0 188 152 341 340 341s341 -153 341 -341s-153 -340 -341 -340s-340 152 -340 340zM107 341c0 -155 128 -283 283 -283c157 0 283 128 283 283c0 157 -126 283 -283 283c-155 0 -283 -126 -283 -283zM489 531l-14 -59s-43 10 -83 10c-83 0 -102 -82 -102 -140
c0 -95 56 -137 110 -137c42 0 82 14 82 14l12 -59s-46 -18 -102 -18c-102 0 -177 48 -177 201c0 149 90 201 177 201c49 0 97 -13 97 -13z" />
    <glyph glyph-name="d" unicode="d" horiz-adv-x="539" 
d="M386 110v318s-41 15 -97 15c-111 0 -159 -87 -159 -191c0 -94 41 -195 125 -195c59 0 131 53 131 53zM395 -8l-8 48s-76 -53 -141 -53c-125 0 -201 92 -201 261c0 203 148 265 244 265c48 0 97 -15 97 -15v251l80 9v-667c0 -36 6 -91 6 -91z" />
    <glyph glyph-name="dagger" unicode="&#x2020;" horiz-adv-x="430" 
d="M170 0v513h-130v70h130v166l80 9v-175h140v-70h-140v-513h-80z" />
    <glyph glyph-name="daggerdbl" unicode="&#x2021;" horiz-adv-x="454" 
d="M52 513v70h130v166l80 9v-175h140v-70h-140v-119h-80v119h-130zM52 201v70h130v75h80v-75h140v-70h-140v-201h-80v201h-130z" />
    <glyph glyph-name="degree" unicode="&#xb0;" horiz-adv-x="355" 
d="M43 627c0 72 61 131 134 131c72 0 136 -59 136 -131c0 -73 -64 -136 -136 -136c-73 0 -134 63 -134 136zM107 627c0 -44 27 -76 70 -76s72 32 72 76c0 42 -29 72 -72 72s-70 -30 -70 -72z" />
    <glyph glyph-name="dieresis" unicode="&#xa8;" horiz-adv-x="482" 
d="M100 647c0 30 24 54 54 54c32 0 57 -24 57 -54c0 -31 -25 -54 -57 -54c-30 0 -54 23 -54 54zM271 647c0 30 24 54 54 54c32 0 57 -24 57 -54c0 -31 -25 -54 -57 -54c-30 0 -54 23 -54 54z" />
    <glyph glyph-name="divide" unicode="&#xf7;" horiz-adv-x="552" 
d="M56 243v80h440v-80h-440zM276 395c-33 0 -59 25 -59 58c0 35 26 60 59 60c34 0 59 -25 59 -60c0 -33 -25 -58 -59 -58zM276 53c-33 0 -59 25 -59 58c0 35 26 60 59 60c34 0 59 -25 59 -60c0 -33 -25 -58 -59 -58z" />
    <glyph glyph-name="dollar" unicode="$" horiz-adv-x="538" 
d="M234 -101v88h-3c-105 0 -181 32 -181 32l20 81s77 -33 161 -33c103 0 179 20 179 94c0 148 -355 144 -355 358c0 87 69 156 179 170v93h70v-92c84 -3 148 -19 148 -19l-10 -83s-79 23 -164 23c-98 0 -138 -28 -138 -92c0 -141 355 -146 355 -347
c0 -121 -96 -160 -191 -180v-93h-70z" />
    <glyph glyph-name="dotaccent" unicode="&#x2d9;" horiz-adv-x="311" 
d="M100 647c0 30 24 54 54 54c32 0 57 -24 57 -54c0 -31 -25 -54 -57 -54c-30 0 -54 23 -54 54z" />
    <glyph glyph-name="dotlessi" unicode="&#x131;" 
d="M72 0v504l80 9v-513h-80z" />
    <glyph glyph-name="e" unicode="e" horiz-adv-x="506" 
d="M429 79l15 -67s-76 -25 -163 -25c-133 0 -237 70 -237 261c0 174 102 265 234 265c130 0 191 -109 191 -238l-15 -44h-323c0 -83 40 -174 165 -174c81 0 133 22 133 22zM134 295h252c0 19 -8 148 -112 148c-112 0 -140 -108 -140 -148z" />
    <glyph glyph-name="eacute" unicode="&#xe9;" horiz-adv-x="506" 
d="M429 79l15 -67s-76 -25 -163 -25c-133 0 -237 70 -237 261c0 174 102 265 234 265c130 0 191 -109 191 -238l-15 -44h-323c0 -83 40 -174 165 -174c81 0 133 22 133 22zM134 295h252c0 19 -8 148 -112 148c-112 0 -140 -108 -140 -148zM165 646l172 125l52 -61l-190 -109
z" />
    <glyph glyph-name="ecircumflex" unicode="&#xea;" horiz-adv-x="506" 
d="M429 79l15 -67s-76 -25 -163 -25c-133 0 -237 70 -237 261c0 174 102 265 234 265c130 0 191 -109 191 -238l-15 -44h-323c0 -83 40 -174 165 -174c81 0 133 22 133 22zM134 295h252c0 19 -8 148 -112 148c-112 0 -140 -108 -140 -148zM116 633l135 137h40l135 -137
l-40 -33l-115 97l-115 -97z" />
    <glyph glyph-name="edieresis" unicode="&#xeb;" horiz-adv-x="506" 
d="M429 79l15 -67s-76 -25 -163 -25c-133 0 -237 70 -237 261c0 174 102 265 234 265c130 0 191 -109 191 -238l-15 -44h-323c0 -83 40 -174 165 -174c81 0 133 22 133 22zM134 295h252c0 19 -8 148 -112 148c-112 0 -140 -108 -140 -148zM126 647c0 30 24 54 54 54
c32 0 57 -24 57 -54c0 -31 -25 -54 -57 -54c-30 0 -54 23 -54 54zM297 647c0 30 24 54 54 54c32 0 57 -24 57 -54c0 -31 -25 -54 -57 -54c-30 0 -54 23 -54 54z" />
    <glyph glyph-name="egrave" unicode="&#xe8;" horiz-adv-x="506" 
d="M429 79l15 -67s-76 -25 -163 -25c-133 0 -237 70 -237 261c0 174 102 265 234 265c130 0 191 -109 191 -238l-15 -44h-323c0 -83 40 -174 165 -174c81 0 133 22 133 22zM134 295h252c0 19 -8 148 -112 148c-112 0 -140 -108 -140 -148zM331 601l-190 109l52 61l172 -125z
" />
    <glyph glyph-name="eight" unicode="8" horiz-adv-x="550" 
d="M273 -13c-116 0 -213 48 -213 186c0 99 77 155 125 186c-63 34 -105 82 -105 151c0 124 105 181 198 181c117 0 198 -69 198 -181c0 -70 -48 -126 -97 -166c58 -31 117 -71 117 -171c0 -141 -107 -186 -223 -186zM314 376c36 31 77 68 77 134c0 57 -27 111 -113 111
c-75 0 -113 -57 -113 -111c0 -71 66 -101 149 -134zM145 173c0 -67 42 -116 129 -116s137 47 137 116c0 77 -63 107 -164 150c-51 -33 -102 -72 -102 -150z" />
    <glyph glyph-name="ellipsis" unicode="&#x2026;" horiz-adv-x="675" 
d="M51 54c0 30 24 54 54 54c32 0 57 -24 57 -54c0 -31 -25 -54 -57 -54c-30 0 -54 23 -54 54zM282 54c0 30 24 54 54 54c32 0 57 -24 57 -54c0 -31 -25 -54 -57 -54c-30 0 -54 23 -54 54zM513 54c0 30 24 54 54 54c32 0 57 -24 57 -54c0 -31 -25 -54 -57 -54
c-30 0 -54 23 -54 54z" />
    <glyph glyph-name="emdash" unicode="&#x2014;" horiz-adv-x="796" 
d="M63 214v80h670v-80h-670z" />
    <glyph glyph-name="endash" unicode="&#x2013;" horiz-adv-x="566" 
d="M63 214v80h440v-80h-440z" />
    <glyph glyph-name="equal" unicode="=" horiz-adv-x="578" 
d="M69 150v70h440v-70h-440zM69 355v70h440v-70h-440z" />
    <glyph glyph-name="eth" unicode="&#xf0;" horiz-adv-x="513" 
d="M221 442l-38 48l81 62c-24 28 -51 56 -79 85l58 54l83 -92l89 67l36 -47l-87 -67c60 -80 98 -163 98 -284c0 -187 -87 -281 -217 -281c-146 0 -213 81 -213 202c0 149 131 205 217 205c59 0 118 -14 118 -14c-14 46 -37 86 -65 125zM246 58c86 0 127 62 131 201
c1 23 -3 54 -3 54s-52 11 -113 11c-95 0 -144 -51 -144 -137c0 -100 64 -129 129 -129z" />
    <glyph glyph-name="exclam" unicode="!" horiz-adv-x="249" 
d="M93 182l-20 546l102 11l-17 -557h-65zM64 59c0 32 26 59 59 59c34 0 62 -27 62 -59c0 -33 -28 -59 -62 -59c-33 0 -59 26 -59 59z" />
    <glyph glyph-name="exclamdown" unicode="&#xa1;" horiz-adv-x="229" 
d="M63 -231l20 546h65l17 -557zM54 434c0 33 26 59 59 59c34 0 62 -26 62 -59c0 -32 -28 -59 -62 -59c-33 0 -59 27 -59 59z" />
    <glyph glyph-name="f" unicode="f" horiz-adv-x="340" 
d="M115 0v438h-93v65h93c0 186 49 255 174 255c51 0 98 -20 124 -43l-35 -60c-26 20 -55 33 -88 33c-89 0 -94 -82 -95 -185h125v-65h-125v-438h-80z" />
    <glyph glyph-name="five" unicode="5" horiz-adv-x="493" 
d="M77 133l31 370h317v-70h-243l-18 -223s36 11 83 11c125 0 204 -67 204 -200c0 -173 -117 -216 -232 -216c-102 0 -192 55 -192 55l27 67c52 -24 101 -52 166 -52c104 0 146 52 146 146c0 78 -34 130 -128 130c-64 0 -122 -24 -122 -24z" />
    <glyph glyph-name="four" unicode="4" horiz-adv-x="574" 
d="M393 402l-275 -336s119 4 208 4h62v105c0 143 5 227 5 227zM21 0l-5 54l372 449h80v-433h70v-70h-70v-195h-80v195h-367z" />
    <glyph glyph-name="g" unicode="g" horiz-adv-x="538" 
d="M466 491v-539c0 -99 -33 -195 -208 -195c-108 0 -183 34 -183 34l21 70s76 -35 152 -35c94 0 139 35 139 141v73s-76 -53 -141 -53c-124 0 -201 88 -201 261c0 199 140 265 244 265c68 0 123 -16 177 -22zM255 57c59 0 132 53 132 53v319s-43 14 -98 14
c-111 0 -159 -86 -159 -191c0 -94 41 -195 125 -195z" />
    <glyph glyph-name="germandbls" unicode="&#xdf;" horiz-adv-x="599" 
d="M72 0v442c0 212 43 317 222 317c94 0 202 -43 202 -171c0 -178 -173 -139 -173 -217c0 -64 251 -94 251 -241c0 -111 -107 -143 -192 -143c-75 0 -149 22 -149 22l16 73s66 -24 134 -24c48 0 106 12 106 69c0 91 -251 108 -251 246c0 125 186 85 186 206
c0 84 -82 107 -137 107c-131 0 -135 -103 -135 -275v-411h-80z" />
    <glyph glyph-name="grave" unicode="`" horiz-adv-x="424" 
d="M290 601l-190 109l52 61l172 -125z" />
    <glyph glyph-name="greater" unicode="&#x3e;" horiz-adv-x="481" 
d="M67 84v86l259 135l-259 125v76l373 -175v-41z" />
    <glyph glyph-name="greaterequal" unicode="&#x2265;" horiz-adv-x="457" 
d="M62 111v87l225 144l-225 134v84l343 -198v-47zM62 0v70h343v-70h-343z" />
    <glyph glyph-name="guillemotleft" unicode="&#xab;" horiz-adv-x="539" 
d="M131 255l152 -182l-53 -45l-191 227l191 227l53 -45zM343 255l152 -182l-53 -45l-191 227l191 227l53 -45z" />
    <glyph glyph-name="guillemotright" unicode="&#xbb;" horiz-adv-x="539" 
d="M256 73l152 182l-152 182l53 45l191 -227l-191 -227zM44 73l152 182l-152 182l53 45l191 -227l-191 -227z" />
    <glyph glyph-name="guilsinglleft" unicode="&#x2039;" horiz-adv-x="327" 
d="M131 255l152 -182l-53 -45l-191 227l191 227l53 -45z" />
    <glyph glyph-name="guilsinglright" unicode="&#x203a;" horiz-adv-x="327" 
d="M44 73l152 182l-152 182l53 45l191 -227l-191 -227z" />
    <glyph glyph-name="h" unicode="h" horiz-adv-x="546" 
d="M72 0v749l80 9v-318s105 73 180 73c109 0 145 -46 145 -189v-324h-80v315c0 79 0 128 -76 128c-69 0 -169 -73 -169 -73v-370h-80z" />
    <glyph glyph-name="hungarumlaut" unicode="&#x2dd;" horiz-adv-x="535" 
d="M100 591l80 167h95l-89 -167h-86zM260 591l80 167h95l-85 -167h-90z" />
    <glyph glyph-name="hyphen" unicode="-" horiz-adv-x="391" 
d="M62 220v74h267v-74h-267z" />
    <glyph glyph-name="hyphen" unicode="&#xad;" horiz-adv-x="391" 
d="M62 220v74h267v-74h-267z" />
    <glyph glyph-name="i" unicode="i" 
d="M72 0v504l80 9v-513h-80zM59 647c0 30 24 54 54 54c32 0 57 -24 57 -54c0 -31 -25 -54 -57 -54c-30 0 -54 23 -54 54z" />
    <glyph glyph-name="iacute" unicode="&#xed;" 
d="M72 0v504l80 9v-513h-80zM39 645l172 125l52 -61l-190 -109z" />
    <glyph glyph-name="icircumflex" unicode="&#xee;" 
d="M72 0v504l80 9v-513h-80zM-44 633l135 137h40l135 -137l-40 -33l-115 97l-115 -97z" />
    <glyph glyph-name="idieresis" unicode="&#xef;" 
d="M72 0v504l80 9v-513h-80zM-30 647c0 30 24 54 54 54c32 0 57 -24 57 -54c0 -31 -25 -54 -57 -54c-30 0 -54 23 -54 54zM141 647c0 30 24 54 54 54c32 0 57 -24 57 -54c0 -31 -25 -54 -57 -54c-30 0 -54 23 -54 54z" />
    <glyph glyph-name="igrave" unicode="&#xec;" 
d="M72 0v504l80 9v-513h-80zM149 600l-190 109l52 61l172 -125z" />
    <glyph glyph-name="j" unicode="j" 
d="M72 502l80 12v-505c0 -119 -43 -194 -136 -247l-41 71c81 47 97 119 97 187v482zM56 647c0 30 24 54 54 54c32 0 57 -24 57 -54c0 -31 -25 -54 -57 -54c-30 0 -54 23 -54 54z" />
    <glyph glyph-name="k" unicode="k" horiz-adv-x="501" 
d="M72 0v749l80 9v-451l223 196h110l-218 -191l226 -312h-101l-184 261l-56 -49v-212h-80z" />
    <glyph glyph-name="l" unicode="l" 
d="M72 0v749l80 9v-758h-80z" />
    <glyph glyph-name="less" unicode="&#x3c;" horiz-adv-x="481" 
d="M414 84l-373 206v41l373 175v-76l-259 -125l259 -135v-86z" />
    <glyph glyph-name="lessequal" unicode="&#x2264;" horiz-adv-x="457" 
d="M52 315v47l343 198v-84l-225 -134l225 -144v-87zM52 0v70h343v-70h-343z" />
    <glyph glyph-name="logicalnot" unicode="&#xac;" horiz-adv-x="580" 
d="M69 220v74h440v-220h-74v146h-366z" />
    <glyph glyph-name="lslash" unicode="&#x142;" horiz-adv-x="431" 
d="M36 257l-31 69l169 78v345l80 9v-317l150 70l31 -69l-181 -84v-358h-80v321z" />
    <glyph glyph-name="m" unicode="m" horiz-adv-x="827" 
d="M73 0v412c0 29 -6 82 -6 82l75 10l11 -63s89 72 170 72c66 0 104 -21 122 -77c54 38 114 77 178 77c99 0 135 -46 135 -189v-324h-80v315c0 79 0 128 -66 128c-62 0 -112 -40 -154 -74v-369h-80v315c0 79 0 128 -66 128c-69 0 -159 -72 -159 -72v-371h-80z" />
    <glyph glyph-name="macron" unicode="&#xaf;" horiz-adv-x="606" 
d="M100 592v70h406v-70h-406z" />
    <glyph glyph-name="macron" unicode="&#x2c9;" horiz-adv-x="606" 
d="M100 592v70h406v-70h-406z" />
    <glyph glyph-name="minus" unicode="&#x2212;" horiz-adv-x="425" 
d="M69 247v80h287v-80h-287z" />
    <glyph glyph-name="multiply" unicode="&#xd7;" horiz-adv-x="562" 
d="M47 60l191 191l-191 192l42 43l192 -192l192 192l42 -43l-192 -192l192 -191l-42 -43l-192 192l-192 -192z" />
    <glyph glyph-name="n" unicode="n" horiz-adv-x="547" 
d="M73 0v403c0 40 -5 91 -5 91l74 10l11 -64s105 73 180 73c109 0 145 -46 145 -189v-324h-80v315c0 79 0 128 -76 128c-69 0 -169 -73 -169 -73v-370h-80z" />
    <glyph glyph-name="nine" unicode="9" horiz-adv-x="513" 
d="M86 -205l-24 72c178 59 274 152 309 242c0 0 -55 -8 -114 -8c-104 0 -217 56 -217 205c0 127 85 207 221 207c130 0 209 -86 209 -286c0 -282 -235 -387 -384 -432zM254 443c-65 0 -129 -35 -129 -135c0 -86 49 -137 144 -137c61 0 113 9 113 9s4 16 3 56
c-3 139 -45 207 -131 207z" />
    <glyph glyph-name="notequal" unicode="&#x2260;" horiz-adv-x="591" 
d="M55 150v70h480v-70h-480zM55 355v70h480v-70h-480zM361 560l66 -24l-186 -513l-66 24z" />
    <glyph glyph-name="ntilde" unicode="&#xf1;" horiz-adv-x="547" 
d="M73 0v403c0 40 -5 91 -5 91l74 10l11 -64s105 73 180 73c109 0 145 -46 145 -189v-324h-80v315c0 79 0 128 -76 128c-69 0 -169 -73 -169 -73v-370h-80zM405 694l54 -41c-36 -45 -70 -63 -103 -63c-66 0 -103 40 -136 40c-26 0 -46 -14 -63 -37l-52 44
c34 47 75 58 111 58c57 0 95 -40 129 -40c31 0 47 20 60 39z" />
    <glyph glyph-name="numbersign" unicode="#" horiz-adv-x="572" 
d="M73 109l41 120h-58v70h82l25 74h-90v70h114l45 129l70 -23l-37 -106h121l46 134l70 -23l-39 -111h59v-70h-83l-25 -74h69v-70h-93l-49 -142l-68 27l39 115h-121l-50 -147zM215 299h121l26 74h-121z" />
    <glyph glyph-name="o" unicode="o" horiz-adv-x="574" 
d="M129 249c0 -129 63 -192 161 -192c97 0 155 64 155 188c0 132 -63 198 -162 198c-100 0 -154 -65 -154 -194zM44 250c0 203 145 263 245 263c97 0 241 -54 241 -257c0 -210 -148 -269 -246 -269c-101 0 -240 55 -240 263z" />
    <glyph glyph-name="oacute" unicode="&#xf3;" horiz-adv-x="574" 
d="M129 249c0 -129 63 -192 161 -192c97 0 155 64 155 188c0 132 -63 198 -162 198c-100 0 -154 -65 -154 -194zM44 250c0 203 145 263 245 263c97 0 241 -54 241 -257c0 -210 -148 -269 -246 -269c-101 0 -240 55 -240 263zM181 645l172 125l52 -61l-190 -109z" />
    <glyph glyph-name="ocircumflex" unicode="&#xf4;" horiz-adv-x="574" 
d="M129 249c0 -129 63 -192 161 -192c97 0 155 64 155 188c0 132 -63 198 -162 198c-100 0 -154 -65 -154 -194zM44 250c0 203 145 263 245 263c97 0 241 -54 241 -257c0 -210 -148 -269 -246 -269c-101 0 -240 55 -240 263zM135 633l135 137h40l135 -137l-40 -33l-115 97
l-115 -97z" />
    <glyph glyph-name="odieresis" unicode="&#xf6;" horiz-adv-x="574" 
d="M129 249c0 -129 63 -192 161 -192c97 0 155 64 155 188c0 132 -63 198 -162 198c-100 0 -154 -65 -154 -194zM44 250c0 203 145 263 245 263c97 0 241 -54 241 -257c0 -210 -148 -269 -246 -269c-101 0 -240 55 -240 263zM152 647c0 30 24 54 54 54c32 0 57 -24 57 -54
c0 -31 -25 -54 -57 -54c-30 0 -54 23 -54 54zM323 647c0 30 24 54 54 54c32 0 57 -24 57 -54c0 -31 -25 -54 -57 -54c-30 0 -54 23 -54 54z" />
    <glyph glyph-name="oe" unicode="&#x153;" horiz-adv-x="898" 
d="M821 79l15 -65s-76 -27 -163 -27c-83 0 -152 29 -193 96c-51 -73 -134 -96 -197 -96c-98 0 -239 50 -239 265c0 191 133 261 239 261c64 0 146 -17 199 -94c38 62 103 94 193 94c130 0 186 -109 186 -238l-15 -44h-323v-22c7 -76 50 -152 165 -152c81 0 133 22 133 22z
M445 252c0 129 -64 191 -162 191c-104 0 -154 -68 -154 -191c0 -127 56 -195 154 -195c103 0 162 56 162 195zM526 295h252c0 19 -8 148 -112 148c-112 0 -140 -108 -140 -148z" />
    <glyph glyph-name="ograve" unicode="&#xf2;" horiz-adv-x="574" 
d="M129 249c0 -129 63 -192 161 -192c97 0 155 64 155 188c0 132 -63 198 -162 198c-100 0 -154 -65 -154 -194zM44 250c0 203 145 263 245 263c97 0 241 -54 241 -257c0 -210 -148 -269 -246 -269c-101 0 -240 55 -240 263zM345 601l-190 109l52 61l172 -125z" />
    <glyph glyph-name="one" unicode="1" horiz-adv-x="330" 
d="M168 0v411l-131 -25l-16 68l178 49h49v-503h-80z" />
    <glyph glyph-name="ordfeminine" unicode="&#xaa;" horiz-adv-x="383" 
d="M252 468v67s-37 -2 -61 -6c-65 -7 -84 -27 -84 -59c0 -31 16 -43 47 -43c43 0 66 17 98 41zM258 379l-7 37c-45 -32 -72 -40 -104 -40c-59 0 -108 27 -108 94c0 70 84 102 160 108c32 2 53 4 53 4c0 62 6 90 -57 90c-52 0 -111 -14 -111 -14l-11 57s66 15 133 15
c91 0 113 -59 113 -123v-162c0 -24 4 -61 4 -61z" />
    <glyph glyph-name="ordmasculine" unicode="&#xba;" horiz-adv-x="427" 
d="M112 552c0 -78 38 -120 104 -120s100 43 100 117c0 79 -38 124 -105 124c-68 0 -99 -44 -99 -121zM44 552c0 138 104 178 171 178c66 0 168 -36 168 -174c0 -142 -105 -182 -171 -182c-69 0 -168 37 -168 178z" />
    <glyph glyph-name="oslash" unicode="&#xf8;" horiz-adv-x="574" 
d="M51 5l50 60c-34 40 -57 100 -57 185c0 203 145 263 245 263c46 0 102 -12 149 -46l53 63l46 -38l-56 -67c29 -39 49 -94 49 -169c0 -210 -148 -269 -246 -269c-44 0 -95 10 -138 38l-49 -58zM129 249c0 -50 9 -90 26 -120l233 278c-27 24 -63 36 -105 36
c-100 0 -154 -65 -154 -194zM445 245c0 45 -8 82 -21 112l-229 -273c25 -19 58 -27 95 -27c97 0 155 64 155 188z" />
    <glyph glyph-name="otilde" unicode="&#xf5;" horiz-adv-x="574" 
d="M129 249c0 -129 63 -192 161 -192c97 0 155 64 155 188c0 132 -63 198 -162 198c-100 0 -154 -65 -154 -194zM44 250c0 203 145 263 245 263c97 0 241 -54 241 -257c0 -210 -148 -269 -246 -269c-101 0 -240 55 -240 263zM413 704l54 -41c-36 -45 -70 -63 -103 -63
c-66 0 -103 40 -136 40c-26 0 -46 -14 -63 -37l-52 44c34 47 75 58 111 58c57 0 95 -40 129 -40c31 0 47 20 60 39z" />
    <glyph glyph-name="p" unicode="p" horiz-adv-x="540" 
d="M73 -228v615c0 46 -5 107 -5 107l74 10l9 -54s68 63 143 63c110 0 201 -70 201 -261c0 -195 -125 -265 -244 -265c-43 0 -98 12 -98 12v-217zM251 57c111 0 159 87 159 191c0 94 -31 195 -125 195c-67 0 -132 -63 -132 -63v-307s37 -16 98 -16z" />
    <glyph glyph-name="paragraph" unicode="&#xb6;" horiz-adv-x="526" 
d="M359 10v602h-72v-346h-48c-136 0 -200 103 -200 208c0 146 49 208 191 208h209v-683c0 -119 -32 -168 -120 -236l-56 60c81 61 96 119 96 187z" />
    <glyph glyph-name="parenleft" unicode="(" horiz-adv-x="335" 
d="M321 -216l-48 -46c-119 97 -234 254 -234 533s115 432 234 529l48 -46c-154 -153 -188 -330 -188 -484s34 -331 188 -486z" />
    <glyph glyph-name="parenright" unicode=")" horiz-adv-x="335" 
d="M62 -262l-48 46c154 155 188 332 188 486s-34 331 -188 484l48 46c119 -97 234 -250 234 -529s-115 -436 -234 -533z" />
    <glyph glyph-name="percent" unicode="%" horiz-adv-x="765" 
d="M46 540c0 54 26 164 155 164c124 0 146 -114 146 -164s-22 -164 -146 -164c-129 0 -155 110 -155 164zM275 540c0 45 -11 100 -79 100c-61 0 -79 -55 -79 -100s18 -100 79 -100c68 0 79 55 79 100zM420 151c0 54 26 164 155 164c124 0 146 -114 146 -164
s-22 -164 -146 -164c-129 0 -155 110 -155 164zM649 151c0 45 -11 100 -79 100c-61 0 -79 -55 -79 -100s18 -100 79 -100c68 0 79 55 79 100zM83 2l519 741l64 -48l-519 -740z" />
    <glyph glyph-name="period" unicode="." horiz-adv-x="222" 
d="M51 59c0 32 26 59 59 59c34 0 62 -27 62 -59c0 -33 -28 -59 -62 -59c-33 0 -59 26 -59 59z" />
    <glyph glyph-name="periodcentered" unicode="&#xb7;" 
d="M53 393c0 33 26 59 59 59s59 -26 59 -59s-26 -59 -59 -59s-59 26 -59 59z" />
    <glyph glyph-name="periodcentered" unicode="&#x2219;" 
d="M53 393c0 33 26 59 59 59s59 -26 59 -59s-26 -59 -59 -59s-59 26 -59 59z" />
    <glyph glyph-name="perthousand" unicode="&#x2030;" horiz-adv-x="1101" 
d="M49 540c0 54 26 164 155 164c124 0 146 -114 146 -164s-22 -164 -146 -164c-129 0 -155 110 -155 164zM278 540c0 45 -11 100 -79 100c-61 0 -79 -55 -79 -100s18 -100 79 -100c68 0 79 55 79 100zM423 151c0 54 26 164 155 164c124 0 146 -114 146 -164
s-22 -164 -146 -164c-129 0 -155 110 -155 164zM652 151c0 45 -11 100 -79 100c-61 0 -79 -55 -79 -100s18 -100 79 -100c68 0 79 55 79 100zM761 151c0 54 26 164 155 164c124 0 146 -114 146 -164s-22 -164 -146 -164c-129 0 -155 110 -155 164zM990 151
c0 45 -11 100 -79 100c-61 0 -79 -55 -79 -100s18 -100 79 -100c68 0 79 55 79 100zM86 2l519 741l64 -48l-519 -740z" />
    <glyph glyph-name="plus" unicode="+" horiz-adv-x="528" 
d="M44 220v74h180v180h80v-180h180v-74h-180v-180h-80v180h-180z" />
    <glyph glyph-name="plusminus" unicode="&#xb1;" horiz-adv-x="551" 
d="M56 0v74h179v146h-180v74h180v176h80v-176h180v-74h-180v-146h181v-74h-440z" />
    <glyph glyph-name="q" unicode="q" horiz-adv-x="537" 
d="M386 -229v269s-76 -53 -141 -53c-110 0 -201 70 -201 261c0 181 134 265 244 265c101 0 117 -28 177 -28v-704zM254 57c59 0 132 53 132 53v319s-25 14 -98 14c-111 0 -159 -87 -159 -191c0 -94 41 -195 125 -195z" />
    <glyph glyph-name="question" unicode="?" horiz-adv-x="408" 
d="M84 182v128c0 123 191 83 191 234c0 67 -47 109 -118 109c-39 0 -77 -15 -77 -15l-20 77s40 18 104 18c114 0 201 -71 201 -179c0 -195 -201 -176 -201 -252v-120h-80zM64 59c0 32 26 59 59 59c34 0 62 -27 62 -59c0 -33 -28 -59 -62 -59c-33 0 -59 26 -59 59z" />
    <glyph glyph-name="questiondown" unicode="&#xbf;" horiz-adv-x="400" 
d="M342 434c0 -32 -26 -59 -59 -59c-34 0 -62 27 -62 59c0 33 28 59 62 59c33 0 59 -26 59 -59zM240 179v128h80v-128c0 -138 -191 -70 -191 -234c0 -67 47 -109 118 -109c39 0 77 15 77 15l20 -77s-40 -18 -104 -18c-114 0 -201 71 -201 179c0 195 201 181 201 244z" />
    <glyph glyph-name="quotedbl" unicode="&#x22;" horiz-adv-x="340" 
d="M200 513v245h80v-245h-80zM60 513v245h80v-245h-80z" />
    <glyph glyph-name="quotedblbase" unicode="&#x201e;" horiz-adv-x="349" 
d="M62 41v80l82 9v-77c0 -64 -58 -176 -58 -176l-62 11s38 97 38 153zM204 41v80l82 9v-77c0 -64 -58 -176 -58 -176l-62 11s38 97 38 153z" />
    <glyph glyph-name="quotedblleft" unicode="&#x201c;" horiz-adv-x="349" 
d="M204 510v77c0 64 58 176 58 176l62 -11s-38 -97 -38 -153v-80zM58 510v77c0 64 58 176 58 176l62 -11s-38 -97 -38 -153v-80z" />
    <glyph glyph-name="quotedblright" unicode="&#x201d;" horiz-adv-x="355" 
d="M235 678v80l82 9v-77c0 -64 -58 -176 -58 -176l-62 11s38 97 38 153zM82 678v80l82 9v-77c0 -64 -58 -176 -58 -176l-62 11s38 97 38 153z" />
    <glyph glyph-name="quoteleft" unicode="&#x2018;" horiz-adv-x="201" 
d="M58 518v77c0 64 58 176 58 176l62 -11s-38 -97 -38 -153v-80z" />
    <glyph glyph-name="quoteright" unicode="&#x2019;" horiz-adv-x="204" 
d="M84 681v80l82 9v-77c0 -64 -58 -176 -58 -176l-62 11s38 97 38 153z" />
    <glyph glyph-name="quotesinglbase" unicode="&#x201a;" horiz-adv-x="207" 
d="M62 41v80l82 9v-77c0 -64 -58 -176 -58 -176l-62 11s38 97 38 153z" />
    <glyph glyph-name="quotesingle" unicode="'" horiz-adv-x="200" 
d="M60 513v245h80v-245h-80z" />
    <glyph glyph-name="r" unicode="r" horiz-adv-x="337" 
d="M73 0v422c0 30 -5 72 -5 72l74 10l8 -73h1s60 82 106 82c37 0 64 -5 64 -5l-18 -77s-29 5 -46 5c-45 0 -104 -100 -104 -100v-336h-80z" />
    <glyph glyph-name="registered" unicode="&#xae;" horiz-adv-x="781" 
d="M50 341c0 188 152 341 340 341s341 -153 341 -341s-153 -340 -341 -340s-340 152 -340 340zM107 341c0 -155 128 -283 283 -283c157 0 283 128 283 283c0 157 -126 283 -283 283c-155 0 -283 -126 -283 -283zM277 159v384h94c84 0 138 -35 138 -109
c0 -93 -76 -111 -76 -111v-2l122 -162h-77l-112 153h-25v-153h-64zM442 426c0 44 -23 56 -71 56h-30v-109h38c48 0 62 23 63 53z" />
    <glyph glyph-name="ring" unicode="&#x2da;" horiz-adv-x="417" 
d="M100 675c0 62 46 109 106 109c62 0 111 -47 111 -109c0 -60 -49 -108 -111 -108c-60 0 -106 48 -106 108zM151 675c0 -32 25 -57 57 -57s58 25 58 57s-26 58 -58 58s-57 -26 -57 -58z" />
    <glyph glyph-name="s" unicode="s" horiz-adv-x="417" 
d="M358 492l-14 -71s-61 22 -134 22c-46 0 -82 -25 -82 -61c0 -90 253 -95 253 -252c0 -111 -108 -143 -183 -143c-95 0 -157 21 -157 21l15 72s79 -23 143 -23c48 0 98 21 98 62c0 113 -254 101 -254 269c0 80 92 125 167 125c76 0 148 -21 148 -21z" />
    <glyph glyph-name="scaron" unicode="&#x161;" horiz-adv-x="417" 
d="M358 492l-14 -71s-61 22 -134 22c-46 0 -82 -25 -82 -61c0 -90 253 -95 253 -252c0 -111 -108 -143 -183 -143c-95 0 -157 21 -157 21l15 72s79 -23 143 -23c48 0 98 21 98 62c0 113 -254 101 -254 269c0 80 92 125 167 125c76 0 148 -21 148 -21zM186 600l-135 137
l40 33l115 -97l115 97l40 -33l-135 -137h-40z" />
    <glyph glyph-name="section" unicode="&#xa7;" horiz-adv-x="545" 
d="M440 675c0 0 -75 16 -160 16c-98 0 -138 -31 -138 -93c0 -142 355 -136 355 -337c0 -81 -48 -132 -98 -167c58 -36 98 -80 98 -152c0 -158 -171 -185 -264 -185c-105 0 -181 32 -181 32l20 81s77 -33 161 -33c103 0 179 24 179 94c0 150 -355 130 -355 348
c0 66 48 120 101 157c-57 37 -101 85 -101 162c0 86 75 172 223 172c97 0 174 -20 174 -20zM411 250c0 68 -101 112 -180 147c-55 -34 -89 -76 -89 -118c0 -66 103 -112 183 -148c53 33 86 78 86 119z" />
    <glyph glyph-name="semicolon" unicode=";" horiz-adv-x="251" 
d="M74 395c0 32 26 59 59 59c34 0 62 -27 62 -59c0 -33 -28 -59 -62 -59c-33 0 -59 26 -59 59zM48 -127l34 246h85l-56 -258z" />
    <glyph glyph-name="seven" unicode="7" horiz-adv-x="441" 
d="M40 433v70h391v-38l-160 -384c-48 -114 -101 -201 -182 -288l-59 53c89 101 133 182 174 281l127 306h-291z" />
    <glyph glyph-name="six" unicode="6" horiz-adv-x="525" 
d="M434 691l25 -71c-178 -55 -273 -135 -309 -233c0 0 55 7 114 7c104 0 217 -51 217 -200c0 -127 -100 -207 -221 -207c-133 0 -209 81 -209 281c0 282 239 382 383 423zM266 57c65 0 130 35 130 135c0 86 -49 132 -144 132c-61 0 -112 -7 -112 -7s-5 -26 -4 -58
c4 -139 44 -202 130 -202z" />
    <glyph glyph-name="slash" unicode="/" horiz-adv-x="510" 
d="M30 -181l375 1031l75 -28l-375 -1031z" />
    <glyph glyph-name="Aacute" unicode="&#xc1;" horiz-adv-x="610" 
d="M19 0l234 682h104l234 -682h-87l-60 182h-277l-61 -182h-87zM193 262h224l-110 340h-3zM205 813l172 125l52 -61l-190 -109z" />
    <glyph glyph-name="sterling" unicode="&#xa3;" horiz-adv-x="555" 
d="M60 -13l-10 72l88 15l-17 233l-59 -6l-7 71l61 8l-9 129c-8 106 65 182 213 182c97 0 173 -26 173 -26l-21 -68s-74 24 -152 24s-135 -25 -128 -123l8 -111h238v-75h-233l18 -232h284v-80h-315c-55 0 -132 -13 -132 -13z" />
    <glyph glyph-name="t" unicode="t" horiz-adv-x="364" 
d="M109 643l80 10v-150h145v-65h-145v-267c0 -88 7 -114 45 -114c40 0 88 28 88 28l24 -61s-47 -37 -118 -37c-88 0 -119 46 -119 162v289h-92v65h92v140z" />
    <glyph glyph-name="three" unicode="3" horiz-adv-x="455" 
d="M20 -159l25 67c52 -24 88 -33 142 -33c70 0 132 42 132 130s-78 138 -194 139v70c112 0 186 49 186 141c0 50 -21 88 -99 88c-63 0 -121 -17 -121 -17l-20 65s64 22 152 22c104 0 173 -48 173 -157c0 -107 -77 -156 -124 -172v-3c67 -24 132 -80 132 -176
c0 -157 -128 -200 -217 -200c-100 0 -167 36 -167 36z" />
    <glyph glyph-name="tilde" unicode="&#x2dc;" horiz-adv-x="554" 
d="M400 704l54 -41c-36 -45 -70 -63 -103 -63c-66 0 -103 40 -136 40c-26 0 -46 -14 -63 -37l-52 44c34 47 75 58 111 58c57 0 95 -40 129 -40c31 0 47 20 60 39z" />
    <glyph glyph-name="trademark" unicode="&#x2122;" horiz-adv-x="901" 
d="M157 349v360h-112v50h283v-50h-112v-360h-59zM372 349l22 410h64l128 -337h1l129 337h64l21 -410h-51l-17 265c-2 28 4 45 4 45h-1l-124 -310h-51l-125 310h-1s4 -16 4 -45l-16 -265h-51z" />
    <glyph glyph-name="two" unicode="2" horiz-adv-x="486" 
d="M43 0v38s295 229 295 332c0 42 -21 73 -101 73c-81 0 -164 -30 -164 -30l-24 64s92 36 200 36c89 0 174 -30 174 -136c0 -122 -225 -306 -225 -306s79 4 164 4h76v-75h-395z" />
    <glyph glyph-name="u" unicode="u" horiz-adv-x="526" 
d="M379 -8l-6 63h-2c-24 -19 -94 -68 -167 -68c-99 0 -135 46 -135 189v327h80v-315c0 -79 0 -131 66 -131c69 0 158 72 158 72v374h80v-438c0 -32 5 -65 5 -65z" />
    <glyph glyph-name="uacute" unicode="&#xfa;" horiz-adv-x="526" 
d="M379 -8l-6 63h-2c-24 -19 -94 -68 -167 -68c-99 0 -135 46 -135 189v327h80v-315c0 -79 0 -131 66 -131c69 0 158 72 158 72v374h80v-438c0 -32 5 -65 5 -65zM158 646l172 125l52 -61l-190 -109z" />
    <glyph glyph-name="ucircumflex" unicode="&#xfb;" horiz-adv-x="526" 
d="M379 -8l-6 63h-2c-24 -19 -94 -68 -167 -68c-99 0 -135 46 -135 189v327h80v-315c0 -79 0 -131 66 -131c69 0 158 72 158 72v374h80v-438c0 -32 5 -65 5 -65zM108 633l135 137h40l135 -137l-40 -33l-115 97l-115 -97z" />
    <glyph glyph-name="udieresis" unicode="&#xfc;" horiz-adv-x="526" 
d="M379 -8l-6 63h-2c-24 -19 -94 -68 -167 -68c-99 0 -135 46 -135 189v327h80v-315c0 -79 0 -131 66 -131c69 0 158 72 158 72v374h80v-438c0 -32 5 -65 5 -65zM123 647c0 30 24 54 54 54c32 0 57 -24 57 -54c0 -31 -25 -54 -57 -54c-30 0 -54 23 -54 54zM294 647
c0 30 24 54 54 54c32 0 57 -24 57 -54c0 -31 -25 -54 -57 -54c-30 0 -54 23 -54 54z" />
    <glyph glyph-name="ugrave" unicode="&#xf9;" horiz-adv-x="526" 
d="M379 -8l-6 63h-2c-24 -19 -94 -68 -167 -68c-99 0 -135 46 -135 189v327h80v-315c0 -79 0 -131 66 -131c69 0 158 72 158 72v374h80v-438c0 -32 5 -65 5 -65zM327 601l-190 109l52 61l172 -125z" />
    <glyph glyph-name="underscore" unicode="_" horiz-adv-x="559" 
d="M59 -126v60h441v-60h-441z" />
    <glyph glyph-name="mu" unicode="&#xb5;" horiz-adv-x="518" 
d="M76 -227v730h80v-315c0 -79 0 -131 66 -131c69 0 158 72 158 72v374h80v-438c0 -32 5 -65 5 -65l-79 -8l-6 63h-2c-24 -19 -94 -68 -167 -68c-31 0 -40 5 -55 13v-227h-80z" />
    <glyph glyph-name="mu" unicode="&#x3bc;" horiz-adv-x="518" 
d="M76 -227v730h80v-315c0 -79 0 -131 66 -131c69 0 158 72 158 72v374h80v-438c0 -32 5 -65 5 -65l-79 -8l-6 63h-2c-24 -19 -94 -68 -167 -68c-31 0 -40 5 -55 13v-227h-80z" />
    <glyph glyph-name="v" unicode="v" horiz-adv-x="489" 
d="M195 0l-185 503h88l122 -355l22 -79h1l23 79l130 355h84l-195 -503h-90z" />
    <glyph glyph-name="w" unicode="w" horiz-adv-x="750" 
d="M154 0l-136 503h84l59 -227c20 -77 40 -187 40 -187h1s27 110 51 187l71 227h107l57 -227c19 -75 39 -187 39 -187h1l56 187l70 227h83l-165 -503h-89l-72 276c-26 101 -37 164 -37 164h-2s-13 -63 -44 -164l-85 -276h-89z" />
    <glyph glyph-name="x" unicode="x" horiz-adv-x="514" 
d="M13 0l191 264l-186 239h94l147 -186l139 186h90l-175 -236l192 -267h-94l-153 213l-155 -213h-90z" />
    <glyph glyph-name="y" unicode="y" horiz-adv-x="497" 
d="M208 13l-201 490h85l94 -227c36 -87 65 -185 65 -185h1s32 98 66 185l87 227h84l-238 -600c-38 -97 -132 -145 -132 -145l-39 69s72 33 97 104z" />
    <glyph glyph-name="yacute" unicode="&#xfd;" horiz-adv-x="497" 
d="M208 13l-201 490h85l94 -227c36 -87 65 -185 65 -185h1s32 98 66 185l87 227h84l-238 -600c-38 -97 -132 -145 -132 -145l-39 69s72 33 97 104zM129 654l172 125l52 -61l-190 -109z" />
    <glyph glyph-name="ydieresis" unicode="&#xff;" horiz-adv-x="497" 
d="M208 13l-201 490h85l94 -227c36 -87 65 -185 65 -185h1s32 98 66 185l87 227h84l-238 -600c-38 -97 -132 -145 -132 -145l-39 69s72 33 97 104zM108 657c0 30 24 54 54 54c32 0 57 -24 57 -54c0 -31 -25 -54 -57 -54c-30 0 -54 23 -54 54zM279 657c0 30 24 54 54 54
c32 0 57 -24 57 -54c0 -31 -25 -54 -57 -54c-30 0 -54 23 -54 54z" />
    <glyph glyph-name="yen" unicode="&#xa5;" horiz-adv-x="615" 
d="M265 0v107h-198v70h198v81h-198v70h158l-178 354h95l165 -326l166 326h95l-178 -354h158v-70h-198v-81h198v-70h-198v-107h-85z" />
    <glyph glyph-name="z" unicode="z" horiz-adv-x="460" 
d="M24 0v31l287 410s-41 -4 -99 -4h-163v66h375v-35l-282 -405s42 3 71 3h210v-66h-399z" />
    <glyph glyph-name="zcaron" unicode="&#x17e;" horiz-adv-x="460" 
d="M24 0v31l287 410s-41 -4 -99 -4h-163v66h375v-35l-282 -405s42 3 71 3h210v-66h-399zM196 600l-135 137l40 33l115 -97l115 97l40 -33l-135 -137h-40z" />
    <glyph glyph-name="zero" unicode="0" horiz-adv-x="604" 
d="M134 250c0 -97 61 -183 169 -183c106 0 167 86 167 183c0 99 -61 183 -167 183c-108 0 -169 -84 -169 -183zM49 250c0 146 108 263 254 263c145 0 252 -117 252 -263c0 -145 -107 -263 -252 -263c-146 0 -254 118 -254 263z" />
    <glyph glyph-name="infinity" unicode="&#x221e;" horiz-adv-x="811" 
d="M420 439c28 47 86 98 152 98c124 0 181 -105 181 -198c0 -117 -69 -198 -181 -198c-70 0 -136 48 -176 97c-35 -58 -91 -97 -157 -97c-124 0 -181 105 -181 198c0 117 69 198 181 198c70 0 141 -49 181 -98zM385 368c-31 41 -80 84 -146 84c-57 0 -111 -27 -111 -113
c0 -75 57 -113 111 -113c71 0 113 59 146 142zM433 309c28 -42 73 -83 139 -83c57 0 111 27 111 113c0 75 -57 113 -111 113c-71 0 -106 -60 -139 -143z" />
    <glyph glyph-name="Thorn" unicode="&#xde;" horiz-adv-x="544" 
d="M172 682v-119h83c173 0 255 -55 255 -201c0 -159 -139 -210 -229 -210h-109v-152h-84v682h84zM244 488h-72v-261h102c90 0 151 30 151 137s-61 124 -181 124z" />
    <glyph glyph-name="thorn" unicode="&#xfe;" horiz-adv-x="539" 
d="M152 -2v-226h-80v977l80 9v-298s76 53 141 53c110 0 201 -83 201 -261c0 -196 -120 -265 -244 -265c-39 0 -72 5 -98 11zM284 443c-55 0 -132 -55 -132 -55v-314s46 -17 98 -17c124 0 159 73 159 191c0 94 -41 195 -125 195z" />
    <glyph glyph-name="onesuperior" unicode="&#xb9;" horiz-adv-x="269" 
d="M135 315v299l-100 -22l-12 46l140 44h39v-367h-67z" />
    <glyph glyph-name="twosuperior" unicode="&#xb2;" horiz-adv-x="360" 
d="M51 315v41s173 154 173 230c0 35 -15 46 -62 46c-44 0 -90 -16 -90 -16l-17 53s46 22 118 22c64 0 121 -22 121 -99c0 -89 -150 -222 -150 -222s29 4 92 4h69v-59h-254z" />
    <glyph glyph-name="threesuperior" unicode="&#xb3;" horiz-adv-x="323" 
d="M40 327l22 51c28 -14 53 -15 69 -15c47 0 71 20 71 59c0 41 -32 60 -105 60v48c71 0 101 25 101 61c0 21 -12 41 -54 41c-34 0 -58 -8 -58 -8l-18 55s34 12 82 12c66 0 118 -26 118 -85c0 -58 -42 -89 -67 -97v-2c36 -13 71 -39 71 -91c0 -85 -83 -108 -141 -108
c-55 0 -91 19 -91 19z" />
    <glyph glyph-name="onequarter" unicode="&#xbc;" horiz-adv-x="833" 
d="M146 315v299l-100 -22l-12 46l140 44h39v-367h-67zM221 -55l296 812l56 -20l-296 -812zM686 294l-125 -156s43 2 89 2h33v55c0 75 3 99 3 99zM488 83v48l195 236h67v-227h37v-57h-37v-83h-67v83h-195z" />
    <glyph glyph-name="onehalf" unicode="&#xbd;" horiz-adv-x="815" 
d="M146 315v299l-100 -22l-12 46l140 44h39v-367h-67zM211 -55l296 812l56 -20l-296 -812zM512 0v41s173 154 173 230c0 35 -15 46 -62 46c-44 0 -90 -16 -90 -16l-17 53s46 22 118 22c64 0 121 -22 121 -99c0 -89 -150 -222 -150 -222s29 4 92 4h69v-59h-254z" />
    <glyph glyph-name="threequarters" unicode="&#xbe;" horiz-adv-x="865" 
d="M257 -55l296 812l56 -20l-296 -812zM40 327l22 51c28 -14 53 -15 69 -15c47 0 71 20 71 59c0 41 -32 60 -105 60v48c71 0 101 25 101 61c0 21 -12 41 -54 41c-34 0 -58 -8 -58 -8l-18 55s34 12 82 12c66 0 118 -26 118 -85c0 -58 -42 -89 -67 -97v-2
c36 -13 71 -39 71 -91c0 -85 -83 -108 -141 -108c-55 0 -91 19 -91 19zM722 294l-125 -156s43 2 89 2h33v55c0 75 3 99 3 99zM524 83v48l195 236h67v-227h37v-57h-37v-83h-67v83h-195z" />
    <glyph glyph-name="currency" unicode="&#xa4;" horiz-adv-x="554" 
d="M465 -14l-69 81c-33 -27 -75 -41 -118 -41c-45 0 -86 14 -120 42l-69 -82l-39 33l72 86c-29 39 -46 91 -46 145c0 55 17 106 46 145l-72 86l39 33l69 -82c34 28 75 43 120 43c44 0 85 -15 119 -42l68 81l39 -33l-72 -85c30 -40 48 -91 48 -146s-19 -106 -49 -146l73 -85z
M140 250c0 -93 64 -161 138 -161c76 0 138 68 138 161c0 95 -62 162 -138 162c-74 0 -138 -67 -138 -162z" />
    <glyph glyph-name="fraction" unicode="&#x2044;" horiz-adv-x="356" 
d="M2 -55l296 812l56 -20l-296 -812z" />
    <glyph glyph-name="fourinferior" unicode="&#x2084;" horiz-adv-x="378" 
d="M227 294l-125 -156s43 2 89 2h33v55c0 75 3 99 3 99zM29 83v48l195 236h67v-227h37v-57h-37v-83h-67v83h-195z" />
    <glyph glyph-name="ogonek" unicode="&#x2db;" horiz-adv-x="242" 
d="M85 0h80c-59 -28 -78 -115 -11 -115c26 0 44 6 44 6l15 -57c-27 -7 -43 -10 -66 -10c-114 0 -159 114 -62 176z" />
    <glyph glyph-name="A" unicode="A" horiz-adv-x="610" 
d="M19 0l234 682h104l234 -682h-87l-60 182h-277l-61 -182h-87zM193 262h224l-110 340h-3z" />
    <glyph glyph-name="AE" unicode="&#xc6;" horiz-adv-x="866" 
d="M390 192h-193l-88 -192h-96l329 682h466v-77h-334v-218h310v-75h-310v-235h344v-77h-428v192zM386 602l-152 -330h156v330h-4z" />
    </font>
</defs>
</svg>
